<svg width="282" height="282" viewBox="0 0 282 282" fill="none" xmlns="http://www.w3.org/2000/svg"><path d="M140.685 45.427a7.173 7.173 0 1 0 0-14.345 7.173 7.173 0 0 0 0 14.345z" stroke="#000" stroke-width="2.126" stroke-miterlimit="22.926"/><path d="M11.954 114.134l102.18-102.18c14.849-14.848 39.009-14.848 53.858 0l102.054 102.054c14.848 14.849 14.848 39.009 0 53.858L167.992 269.92c-14.849 14.848-39.009 14.848-53.858 0L11.954 167.866c-14.722-14.723-14.722-39.009 0-53.732z" stroke="#EAE1E1" stroke-width="1.417" stroke-miterlimit="22.926"/><path d="M16.988 119.167L119.041 17.114c12.081-12.08 31.711-12.08 43.792 0l102.053 102.053c12.081 12.081 12.081 31.711 0 43.791L162.833 265.012c-12.081 12.08-31.711 12.08-43.792 0L16.988 162.958c-11.955-12.08-11.955-31.836 0-43.791z" stroke="#000" stroke-width="2.126" stroke-miterlimit="22.926"/></svg>