<svg width="12" height="12" viewBox="0 0 12 12" fill="none" xmlns="http://www.w3.org/2000/svg"><path fill-rule="evenodd" clip-rule="evenodd" d="M2.995 0H8.07a2.999 2.999 0 0 1 2.995 2.995V8.07a2.998 2.998 0 0 1-2.995 2.995H2.995A2.998 2.998 0 0 1 0 8.07V2.995A2.999 2.999 0 0 1 2.995 0zm-.488 5.532a3.029 3.029 0 0 0 3.025 3.026 3.029 3.029 0 0 0 3.026-3.026 3.029 3.029 0 0 0-3.026-3.025 3.029 3.029 0 0 0-3.025 3.025zm5.23-3.206a.895.895 0 0 0 1.787 0 .895.895 0 0 0-1.788 0zM3 5.5C3 4.121 4.122 3 5.5 3 6.879 3 8 4.121 8 5.5 8 6.878 6.879 8 5.5 8A2.503 2.503 0 0 1 3 5.5z" fill="url(#a)"/><defs><linearGradient id="a" x1="9" y1="11.5" x2="9.5" y2="-1.5" gradientUnits="userSpaceOnUse"><stop stop-color="#FFB800"/><stop offset="1" stop-color="#AD00FF"/></linearGradient></defs></svg>