<svg width="14" height="8" viewBox="0 0 14 8" fill="none" xmlns="http://www.w3.org/2000/svg"><path d="M11.617 4.587c-.226-.28-.161-.404 0-.654.003-.003 1.872-2.532 2.064-3.39h.002c.095-.313 0-.543-.463-.543h-1.53c-.39 0-.57.197-.666.418 0 0-.78 1.827-1.882 3.012-.356.342-.52.452-.715.452-.096 0-.244-.11-.244-.423V.542C8.183.167 8.073 0 7.75 0H5.344c-.244 0-.39.175-.39.338 0 .355.552.437.609 1.437v2.17c0 .475-.088.562-.284.562-.52 0-1.783-1.834-2.531-3.934C2.597.165 2.448 0 2.056 0H.525C.088 0 0 .198 0 .418c0 .39.52 2.328 2.42 4.888C3.686 7.053 5.468 8 7.09 8c.975 0 1.094-.21 1.094-.572 0-1.67-.088-1.827.4-1.827.226 0 .616.11 1.526.952C11.15 7.553 11.321 8 11.903 8h1.531c.436 0 .658-.21.53-.625-.29-.873-2.258-2.668-2.347-2.788z" fill="#6690E1"/></svg>