<svg width="16" height="19" viewBox="0 0 16 19" fill="none" xmlns="http://www.w3.org/2000/svg"><path d="M3.858 9.615c-2.874 8.409 3.545 6.027 0 0z" stroke="#AFAFAF" stroke-linecap="round" stroke-linejoin="round"/><path d="M10.575 13.171c-8.88-.334-4.752 5.129 0 0z" stroke="#AFAFAF" stroke-linecap="round" stroke-linejoin="round"/><path d="M9 8c-5.273 4.28-1.19 6.041-8 10" stroke="#AFAFAF" stroke-linecap="round"/><path d="M10 1c.793 1.255.986 1.977.73 3.236.872-1.056 1.453-1.469 2.806-1.772-.28 1.52-.63 2.153-1.771 2.805 1.367-.078 1.993.035 3.235.731-1.29.667-1.993.844-3.236.73 1.1.897 1.492 1.497 1.772 2.806-1.666-.374-2.216-.79-2.805-1.772.394 1.449.196 2.15-.731 3.236-.757-1.247-1.012-2.014-.73-3.236-.677 1.073-1.287 1.467-2.806 1.772.342-1.459.765-2.043 1.772-2.805C6.859 6.87 6.13 6.727 5 6c1.152-.811 1.875-.886 3.236-.73-1.087-.83-1.466-1.46-1.772-2.807 1.437.256 2.064.628 2.805 1.772C8.882 2.916 9.095 2.219 10 1z" stroke="#AFAFAF" stroke-linecap="round" stroke-linejoin="round"/></svg>