<svg width="13" height="15" viewBox="0 0 13 15" fill="none" xmlns="http://www.w3.org/2000/svg"><path d="M6.632 13.75l-.242.438a.5.5 0 0 0 .457.013l-.215-.45zM1.132 1V.5a.5.5 0 0 0-.5.478l.5.022zm11 0l.5-.014a.5.5 0 0 0-.5-.486V1zm-5.26 12.312c-3.024-1.665-4.347-3.137-4.932-4.914-.606-1.838-.455-4.062-.309-7.376L.632.978C.49 4.198.312 6.654.99 8.711c.698 2.117 2.269 3.753 5.4 5.477l.483-.876zM1.133 1.5h11v-1h-11v1zm10.5-.486c.046 1.699.119 3.124.105 4.387-.013 1.256-.114 2.301-.397 3.218-.552 1.785-1.835 3.204-4.924 4.68l.431.902c3.223-1.54 4.782-3.132 5.448-5.286.326-1.053.428-2.21.442-3.504.014-1.287-.06-2.76-.106-4.425l-1 .028z" fill="#AFAFAF"/></svg>