<svg width="20" height="20" viewBox="0 0 20 20" fill="none" xmlns="http://www.w3.org/2000/svg"><path d="M16.98 2.902A9.843 9.843 0 0 0 9.975 0a9.838 9.838 0 0 0-5.761 1.846.39.39 0 1 0 .455.636 9.063 9.063 0 0 1 5.306-1.7c5.032 0 9.125 4.093 9.125 9.125s-4.093 9.126-9.125 9.126a9.133 9.133 0 0 1-4.384-1.12.391.391 0 0 0-.29-.035L.952 19.053l1.186-4.231a.39.39 0 0 0-.04-.303 9.117 9.117 0 0 1-1.25-4.612c0-1.917.589-3.752 1.701-5.306a.39.39 0 0 0-.635-.455A9.838 9.838 0 0 0 .068 9.907c0 1.707.44 3.384 1.273 4.862L.015 19.504a.39.39 0 0 0 .478.482l4.861-1.314a9.922 9.922 0 0 0 4.62 1.142 9.841 9.841 0 0 0 7.006-2.902 9.842 9.842 0 0 0 2.902-7.005 9.842 9.842 0 0 0-2.902-7.005z" fill="#646260"/><path d="M16.378 14.642a.39.39 0 0 0 .541-.108 8.307 8.307 0 0 0 1.4-4.627 8.29 8.29 0 0 0-2.444-5.9 8.29 8.29 0 0 0-5.9-2.444 8.29 8.29 0 0 0-5.901 2.443A8.29 8.29 0 0 0 1.63 9.907c0 1.485.395 2.943 1.142 4.216l.253.43-.764 2.725a.39.39 0 0 0 .478.483L5.553 17l.413.226a8.35 8.35 0 0 0 8.636-.375.39.39 0 1 0-.434-.65 7.567 7.567 0 0 1-7.826.34l-.551-.302a.391.391 0 0 0-.29-.035l-2.302.622.623-2.223a.39.39 0 0 0-.04-.303l-.336-.573a7.554 7.554 0 0 1-1.035-3.821c0-4.17 3.393-7.563 7.564-7.563 4.17 0 7.563 3.393 7.563 7.563 0 1.5-.439 2.95-1.268 4.194a.39.39 0 0 0 .108.541z" fill="#646260"/><path d="M8.547 8.707l.026-.03c.35-.393.261-.854.126-1.172-.201-.469-.726-1.668-.776-1.782-.077-.196-.336-.506-.856-.517a4.932 4.932 0 0 0-.58.008c-.06.009-1.466.237-1.71 2.345-.11.97.338 2.124 1.335 3.433 1.104 1.448 2.119 2.311 3.62 3.076.746.381 1.838.827 2.854.827.033 0 .066 0 .098-.002 1.142-.033 1.751-.507 2.061-.899.33-.416.399-.826.408-.897.007-.045.023-.188.033-.56.014-.52-.284-.792-.476-.88-.108-.053-1.227-.608-1.685-.83-.31-.15-.765-.236-1.175.209l-.006.006c-.055.048-.11.12-.277.343a8.43 8.43 0 0 1-.394.503c-.183.013-.798-.258-1.669-.932-.548-.425-1.135-1.087-1.459-1.648a.076.076 0 0 1-.004-.03c.134-.138.353-.392.506-.571zm.48 2.866c.26.202.77.578 1.263.828.234.118.944.479 1.381.091.121-.107.293-.332.522-.639.066-.088.147-.197.179-.234a.795.795 0 0 0 .053-.054c.07-.076.102-.111.259-.035.47.228 1.644.81 1.686.831.015.015.037.062.035.156-.009.324-.022.44-.024.463l-.002.011a1.245 1.245 0 0 1-.269.546c-.304.363-.79.556-1.448.576-.88.026-1.886-.389-2.576-.74-1.404-.717-2.313-1.49-3.353-2.855-.858-1.126-1.266-2.118-1.18-2.87.164-1.414.939-1.636 1.043-1.66.036-.002.16-.007.455 0 .094.001.14.026.153.041.02.044.57 1.302.776 1.783.103.24.04.311.01.345l-.015.017-.022.026a13.23 13.23 0 0 1-.472.534.808.808 0 0 0-.114.962c.376.651 1.027 1.388 1.66 1.877z" fill="#646260"/></svg>