<?xml version="1.0" encoding="utf-8"?><svg xmlns="http://www.w3.org/2000/svg" xmlns:xlink="http://www.w3.org/1999/xlink"><symbol viewBox="0 0 20 14" id="align-center" xmlns="http://www.w3.org/2000/svg"><path fill-rule="evenodd" clip-rule="evenodd" d="M20 2V0H0v2h20zm-3 2v2H3V4h14zm3 6V8H0v2h20zm-3 4v-2H3v2h14z"/></symbol><symbol viewBox="0 0 20 14" id="align-left" xmlns="http://www.w3.org/2000/svg"><path fill-rule="evenodd" clip-rule="evenodd" d="M20 2V0H0v2h20zm-6 2v2H0V4h14zm6 6V8H0v2h20zm-6 4v-2H0v2h14z"/></symbol><symbol viewBox="0 0 20 14" id="align-right" xmlns="http://www.w3.org/2000/svg"><path fill-rule="evenodd" clip-rule="evenodd" d="M20 2V0H0v2h20zm0 2v2H6V4h14zm0 6V8H0v2h20zm0 4v-2H6v2h14z"/></symbol><symbol viewBox="0 0 34.322 34.322" id="aroma" xmlns="http://www.w3.org/2000/svg"><path d="M31.035 34.322H3.286A3.29 3.29 0 0 1 0 31.036V4.719A4.725 4.725 0 0 1 4.72 0h2.684c1.123 0 2.212.409 3.063 1.136a4.69 4.69 0 0 1 3.27-.132l2.553.829c1.127.365 2.007 1.06 2.573 2.025a4.738 4.738 0 0 1 3.139.885l2.171 1.578c1.1.797 1.662 1.626 1.837 2.726a4.69 4.69 0 0 1 2.697 1.808l1.578 2.171c.701.964 1.005 2.046.893 3.158a4.693 4.693 0 0 1 2.018 2.556l.83 2.553c.3.924.304 1.929.014 2.857.183.408.284.86.284 1.336v5.551a3.293 3.293 0 0 1-3.289 3.285zM3.286 23.638a1.848 1.848 0 0 0-1.846 1.847v5.551c0 1.019.828 1.847 1.846 1.847h27.749a1.85 1.85 0 0 0 1.848-1.847v-5.551a1.85 1.85 0 0 0-1.848-1.847H3.286zM4.72 1.441a3.283 3.283 0 0 0-3.28 3.278v18.048c.106-.072.218-.14.333-.199a.93.93 0 0 1 .024-.098L7.79 4.033a4.685 4.685 0 0 1 1.367-2.08 3.274 3.274 0 0 0-1.752-.512H4.72zm7.047 20.758h19.268c.655 0 1.267.192 1.78.524a3.28 3.28 0 0 0-.16-.986l-.83-2.553a3.26 3.26 0 0 0-1.783-1.976 3.296 3.296 0 0 0-2.352-.129l-15.923 5.12zm-8.367 0h.085L15.409 5.787a4.71 4.71 0 0 1 1.959-1.563 3.175 3.175 0 0 0-1.523-1.022l-2.553-.83a3.267 3.267 0 0 0-2.525.21.705.705 0 0 1-.169.094 3.271 3.271 0 0 0-1.439 1.802L3.4 22.199zm21.485-11.848c-.669 0-1.343.203-1.925.625L7.87 21.939l19.38-6.231a4.706 4.706 0 0 1 2.507-.106c-.026-.604-.239-1.183-.637-1.73l-1.578-2.171a3.276 3.276 0 0 0-2.657-1.35zm-6.36-4.992a3.275 3.275 0 0 0-1.952 1.274L5.492 21.886 22.114 9.811a4.688 4.688 0 0 1 2.392-.884c-.168-.541-.526-.967-1.18-1.44l-2.171-1.578a3.266 3.266 0 0 0-2.495-.575.782.782 0 0 1-.135.025z"/><path d="M6.041 30.754c-1.24 0-2.271-.916-2.451-2.178-.179-1.255.56-2.315 1.883-2.702 1.478-.432 2.88.563 3.066 2.102.131 1.083-.391 2.337-1.854 2.698-.215.053-.433.08-.644.08zm.167-3.548c-.104 0-.215.018-.332.052-.884.258-.896.866-.861 1.116.067.467.44.94 1.025.94.096 0 .197-.013.301-.038.815-.201.794-.912.768-1.126-.055-.454-.36-.944-.901-.944z"/></symbol><symbol viewBox="0 0 32 32" id="bill" xmlns="http://www.w3.org/2000/svg"><g clip-path="url(#aea)"><path d="M29.687 15.375h-4.626V.625a.625.625 0 0 0-1.067-.442l-1.77 1.77-1.77-1.77a.625.625 0 0 0-.884 0l-1.771 1.77-1.77-1.77a.625.625 0 0 0-.884 0l-1.77 1.77-1.771-1.77a.625.625 0 0 0-.884 0l-1.77 1.77L7.178.184a.625.625 0 0 0-.884 0l-1.77 1.77-1.77-1.77a.625.625 0 0 0-1.067.458v28.11A3.254 3.254 0 0 0 4.938 32h22.124a3.253 3.253 0 0 0 3.25-3.25V16a.625.625 0 0 0-.625-.625zM4.937 30.75c-1.102 0-2-.897-2-2V2.135l1.146 1.144c.244.244.64.244.884 0l1.77-1.77 1.77 1.77c.245.244.64.244.884 0l1.771-1.77 1.77 1.77c.245.244.64.244.884 0l1.77-1.77 1.771 1.77c.245.244.64.244.884 0l1.77-1.77 1.771 1.77c.244.244.64.244.884 0l1.146-1.145V28.75c0 .754.26 1.448.692 2H4.938zm24.125-2c0 1.103-.897 2-2 2s-2-.897-2-2V16.625h4V28.75z"/><path d="M13.375 9.928c-.62 0-1.125-.432-1.125-.963 0-.531.504-.963 1.125-.963.62 0 1.125.432 1.125.963a.625.625 0 1 0 1.25 0c0-1.019-.743-1.878-1.75-2.135v-.423a.625.625 0 1 0-1.25 0v.423C11.742 7.087 11 7.946 11 8.965c0 1.22 1.065 2.213 2.375 2.213.62 0 1.125.432 1.125.963 0 .532-.505.964-1.125.964s-1.125-.432-1.125-.963a.625.625 0 0 0-1.25 0c0 1.018.742 1.878 1.75 2.134v.51a.625.625 0 0 0 1.25 0v-.51c1.007-.256 1.75-1.116 1.75-2.134 0-1.22-1.066-2.214-2.375-2.214zm6.279 0h-1.218a.625.625 0 1 0 0 1.25h1.218a.625.625 0 1 0 0-1.25zm-11.34 0H7.096a.625.625 0 0 0 0 1.25h1.218a.625.625 0 1 0 0-1.25zm11.656 6.947h-9.9a.625.625 0 1 0 0 1.25h9.901a.625.625 0 0 0 0-1.25zm-12.749.184a.63.63 0 0 0-.442-.184.63.63 0 0 0-.442.184.63.63 0 0 0-.183.441.63.63 0 0 0 .183.442.63.63 0 0 0 .442.183.63.63 0 0 0 .442-.183.63.63 0 0 0 .183-.442.63.63 0 0 0-.183-.441zM19.97 21h-9.9a.625.625 0 0 0 0 1.25h9.901a.625.625 0 0 0 0-1.25zm-12.749.183A.63.63 0 0 0 6.78 21a.63.63 0 0 0-.625.625.63.63 0 0 0 .183.442.63.63 0 0 0 .442.183.63.63 0 0 0 .625-.625.63.63 0 0 0-.183-.442zm12.749 3.942h-9.9a.625.625 0 0 0 0 1.25h9.901a.625.625 0 0 0 0-1.25zm-12.749.183a.63.63 0 0 0-.442-.183.63.63 0 0 0-.625.625.63.63 0 0 0 .183.442.63.63 0 0 0 .442.183.63.63 0 0 0 .625-.625.63.63 0 0 0-.183-.442z"/></g><defs><clipPath id="aea"><path d="M0 0h32v32H0z"/></clipPath></defs></symbol><symbol viewBox="0 0 32 32" id="budget" xmlns="http://www.w3.org/2000/svg"><g clip-path="url(#afa)"><path d="M28.26 4.8a.533.533 0 0 0-.533-.533H12.794a.533.533 0 0 0-.533.533v2.133a.533.533 0 0 0 1.067 0v-1.6h13.866v3.2H15.46a.533.533 0 1 0 0 1.067h12.266a.533.533 0 0 0 .533-.534V4.8zm-6.4 8a.533.533 0 0 0 0-1.067h-3.2a.533.533 0 0 0-.532.533v3.2c0 .295.238.533.533.533h3.2a.533.533 0 0 0 0-1.066h-2.667V12.8h2.667zm6.4-.534a.533.533 0 0 0-.533-.533h-3.2a.533.533 0 0 0-.533.533v3.2c0 .295.239.533.533.533h3.2a.533.533 0 0 0 .533-.533v-3.2zm-1.066 2.667H25.06V12.8h2.133v2.133zm-4.8 3.199a.533.533 0 0 0-.533-.533h-3.2a.533.533 0 0 0-.534.533v3.2c0 .295.24.534.534.534h3.2a.533.533 0 0 0 .533-.534v-3.2zM21.327 20.8h-2.133v-2.133h2.133V20.8zm.533 2.666h-3.2a.533.533 0 0 0-.532.533v3.2c0 .294.238.533.533.533h3.2a.533.533 0 0 0 .533-.533v-3.2a.533.533 0 0 0-.533-.533zm-.533 3.2h-2.133v-2.134h2.133v2.133zm6.4-9.066h-3.2a.533.533 0 0 0-.533.532V27.2c0 .294.239.533.533.533h3.2a.533.533 0 0 0 .533-.533v-9.067a.533.533 0 0 0-.533-.533zm-.533 9.065H25.06v-8h2.133v8z"/><path d="M25.594 7.466a.533.533 0 0 0 0-1.066H23.46a.533.533 0 0 0 0 1.066h2.133zm-4.267 0a.533.533 0 0 0 0-1.066h-2.133a.533.533 0 0 0 0 1.066h2.133z"/><path d="M29.327 0H11.194a2.667 2.667 0 0 0-2.666 2.667v4.266a.533.533 0 0 0 1.067 0V2.667a1.6 1.6 0 0 1 1.6-1.6h18.132a1.6 1.6 0 0 1 1.6 1.6v26.665a1.6 1.6 0 0 1-1.6 1.6h-14.4a.533.533 0 0 0 0 1.067h14.4a2.667 2.667 0 0 0 2.667-2.667V2.667A2.667 2.667 0 0 0 29.327 0z"/><path d="M15.461 12.266v3.2a.533.533 0 0 0 1.067 0v-3.2a.533.533 0 0 0-1.067 0zM8.528 20.8c.589 0 1.067.477 1.067 1.066a.533.533 0 1 0 1.066 0c0-.972-.658-1.821-1.6-2.064v-1.136a.533.533 0 0 0-1.066 0v1.136a2.133 2.133 0 0 0 .533 4.197 1.067 1.067 0 1 1-1.067 1.067.533.533 0 0 0-1.066 0c0 .972.658 1.82 1.6 2.064v1.136a.533.533 0 0 0 1.066 0V27.13a2.133 2.133 0 0 0-.533-4.198 1.067 1.067 0 0 1 0-2.133z"/><path d="M15.925 27.732a.535.535 0 0 0-.928-.533A7.467 7.467 0 1 1 4.693 17.066h7.67a7.466 7.466 0 0 1 3.631 6.4.533.533 0 0 0 1.067 0 8.533 8.533 0 0 0-3.296-6.73 1.6 1.6 0 0 0-.496-2.795 2.668 2.668 0 0 0 .592-1.675v-1.6a2.133 2.133 0 0 0-3.733-1.408 2.134 2.134 0 0 0-3.2 0 2.133 2.133 0 0 0-3.733 1.408v1.6c0 .61.209 1.2.592 1.675a1.6 1.6 0 0 0-.496 2.794 8.533 8.533 0 1 0 12.634 10.997zM4.261 10.666a1.067 1.067 0 0 1 2.134 0 .533.533 0 0 0 1.066 0 1.067 1.067 0 0 1 2.134 0 .533.533 0 0 0 1.066 0 1.067 1.067 0 0 1 2.133 0v1.6a1.6 1.6 0 0 1-1.6 1.6H5.861a1.6 1.6 0 0 1-1.6-1.6v-1.6zm0 4.267h8.533a.533.533 0 0 1 0 1.066H4.261a.533.533 0 0 1 0-1.066z"/></g><defs><clipPath id="afa"><path d="M0 0h32v32H0z"/></clipPath></defs></symbol><symbol viewBox="0 0 512 484.174" id="cart" xmlns="http://www.w3.org/2000/svg"><defs><path id="aga" d="M0 0h511.999v484.174H0z"/></defs><clipPath id="agb"><use xlink:href="#aga" overflow="visible"/></clipPath><path clip-path="url(#agb)" d="M473.043 150.261h-26.541c-.204-.226-.393-.459-.611-.675L301.198 4.89c-6.521-6.52-17.092-6.52-23.611 0-6.521 6.52-6.521 17.091 0 23.611L399.344 150.26H112.653L234.415 28.501c6.52-6.52 6.52-17.091 0-23.611-6.519-6.52-17.091-6.52-23.611 0L66.107 149.586c-.217.217-.407.45-.61.675h-26.54C17.477 150.261 0 167.737 0 189.217v22.261c0 20.461 15.855 37.287 35.923 38.839l32 192.004c4.043 24.251 24.821 41.853 49.407 41.853h282.229c24.767 0 46.081-18.488 49.584-43.004l27.27-190.88c19.91-1.714 35.587-18.467 35.587-38.812v-22.261c0-21.48-17.476-38.956-38.957-38.956m5.567 61.217a5.571 5.571 0 0 1-5.565 5.565H306.088c-9.22 0-16.697 7.475-16.697 16.696 0 9.22 7.477 16.696 16.697 16.696h136.576L416.089 436.45c-1.168 8.172-8.271 14.334-16.529 14.334H117.331a16.645 16.645 0 0 1-16.47-13.951L69.796 250.435h136.117c9.219 0 16.696-7.475 16.696-16.696 0-9.22-7.476-16.696-16.696-16.696H38.958a5.571 5.571 0 0 1-5.565-5.565v-22.261a5.571 5.571 0 0 1 5.565-5.565h434.087a5.571 5.571 0 0 1 5.565 5.565v22.261z"/><path clip-path="url(#agb)" d="M155.826 283.825c-9.22 0-16.696 7.477-16.696 16.696v100.174c0 9.221 7.475 16.696 16.696 16.696s16.696-7.475 16.696-16.696V300.521c0-9.219-7.475-16.696-16.696-16.696m100.174 0c-9.22 0-16.696 7.477-16.696 16.696v100.174c0 9.221 7.475 16.696 16.696 16.696 9.22 0 16.696-7.475 16.696-16.696V300.521c0-9.219-7.476-16.696-16.696-16.696m100.173 0c-9.22 0-16.694 7.477-16.694 16.696v100.174c0 9.221 7.474 16.696 16.694 16.696s16.696-7.475 16.696-16.696V300.521c.001-9.219-7.475-16.696-16.696-16.696"/></symbol><symbol viewBox="0 0 2260 1600" id="checkmark" xmlns="http://www.w3.org/2000/svg"><path d="M840 1587c-25-7-56-20-68-29-61-42-725-705-744-742-59-112 2-256 132-315 58-27 150-27 206-2 27 12 130 106 295 268l254 250 471-487c286-295 486-493 507-503 84-40 170-31 253 26 97 67 136 198 87 292-31 59-1132 1194-1185 1222s-147 37-208 20z"/></symbol><symbol viewBox="0 0 1600 960" id="chev-down" xmlns="http://www.w3.org/2000/svg"><path d="M721 923c-21-21-164-171-317-333S98 265 63 228C4 166 0 159 0 115c0-40 5-52 34-81C68 0 112-10 154 6c8 3 158 156 332 340s319 334 323 334 146-150 315-334C1292 162 1438 9 1446 6c48-18 115 7 139 54 28 53 20 95-27 147-172 190-636 694-664 721-29 27-41 32-84 32-45 0-55-4-89-37z"/></symbol><symbol viewBox="0 0 13 8" id="chev-down-constr" xmlns="http://www.w3.org/2000/svg"><path fill-rule="evenodd" clip-rule="evenodd" d="M11.666.166l1.002 1.002L6.5 7.335.333 1.168 1.334.166 6.5 5.332 11.666.166z"/></symbol><symbol viewBox="0 0 910 1350" id="chev-left" xmlns="http://www.w3.org/2000/svg"><path d="M663 1268C249 919 18 716 9 692c-22-56-3-75 380-391L753 0h49c41 0 54 5 79 29 30 30 37 67 19 100-5 10-149 134-320 275-170 142-310 259-310 261s134 117 298 257c163 139 307 263 320 275 40 40 26 110-28 138-62 32-91 22-197-67z"/></symbol><symbol viewBox="0 0 910 1350" id="chev-right" xmlns="http://www.w3.org/2000/svg"><path d="M48 1334c-52-28-65-98-25-137 12-12 156-136 320-275 163-140 297-255 297-257S500 546 330 404C159 263 15 139 10 129-8 96-1 59 29 29 54 5 67 0 108 0h49l364 301c383 316 402 335 380 391-6 16-120 121-283 260-489 418-464 398-506 398-20-1-49-7-64-16z"/></symbol><symbol viewBox="0 0 24 24" id="clipboard" xmlns="http://www.w3.org/2000/svg"><path d="M22.051 5.92L15.916.255C15.784.135 15.612 0 15.433 0H9.115C7.178 0 5.843 1.007 5.843 2.463V4.3H4.64c-1.771 0-3.095 1.119-3.095 2.64v14.328C1.545 22.876 3.005 24 4.64 24h10.471c1.675 0 2.911-1.178 2.911-2.733V19.7h1.564c1.58 0 2.735-1.258 2.735-2.909V6.647c0-.01.086-.02.086-.03 0-.012.048-.022.048-.033 0-.3-.141-.557-.404-.664zm-6.178-3.533l3.994 3.344h-3.994V2.387zm.717 18.88c0 .846-.695 1.3-1.479 1.3H4.641c-.832 0-1.663-.494-1.663-1.3V6.938c0-.931 1.109-1.207 1.663-1.207h5.501v5.51c0 .395.5.58.896.58h5.552v9.446zm-.819-10.879h-4.197V6.85l4.197 3.538zm3.815 7.88h-1.564v-7.147c0-.201.005-.393-.143-.528L11.635 4.84a.682.682 0 0 0-.62-.405c-.013 0-.014-.066-.027-.065-.013 0-.016-.072-.03-.072H7.276V2.463c0-.739 1.082-1.03 1.84-1.03h5.324v5.15c0 .396.5.58.896.58h5.552v9.629c0 .86-.513 1.477-1.302 1.477z"/></symbol><symbol viewBox="0 0 458.009 512.003" id="clock" xmlns="http://www.w3.org/2000/svg"><defs><path id="ana" d="M0 0h458.009v512.003H0z"/></defs><clipPath id="anb"><use xlink:href="#ana" overflow="visible"/></clipPath><path clip-path="url(#anb)" d="M275.784 239.712c-4.434-4.429-11.619-4.429-16.049.001l-21.308 21.306a27.034 27.034 0 0 0-9.421-1.687c-3.314 0-6.49.599-9.429 1.69l-43.793-43.794c-4.431-4.429-11.616-4.429-16.046 0-4.431 4.431-4.432 11.616 0 16.048l43.797 43.798a27.017 27.017 0 0 0-1.686 9.418c0 14.975 12.183 27.158 27.159 27.158 14.977 0 27.159-12.183 27.159-27.158 0-3.313-.598-6.487-1.688-9.427l21.306-21.306c4.429-4.43 4.429-11.614-.001-16.047m-46.778 53.513a6.742 6.742 0 0 1-6.735-6.734c0-3.714 3.022-6.735 6.735-6.735s6.735 3.021 6.735 6.735a6.743 6.743 0 0 1-6.735 6.734"/><path clip-path="url(#anb)" d="M362.962 114.459l12.856-18.36 51.542 36.09a11.333 11.333 0 0 0 8.477 1.881 11.337 11.337 0 0 0 7.324-4.666c26.013-37.151 16.952-88.54-20.198-114.555-37.15-26.017-88.542-16.953-114.553 20.198-3.594 5.133-2.346 12.208 2.786 15.802l46.034 32.234-12.859 18.365C310.883 80.495 271.337 68.36 229.006 68.36c-42.332 0-81.877 12.134-115.366 33.088l-12.86-18.365 46.034-32.234c5.133-3.595 6.381-10.669 2.787-15.802C123.588-2.104 72.199-11.166 35.047 14.849c-37.151 26.013-46.213 77.402-20.2 114.554a11.342 11.342 0 0 0 15.802 2.785l51.541-36.09 12.856 18.36C43.854 154.413 10.874 216.67 10.874 286.492c0 75.929 39.004 142.91 98.02 181.989l-17.97 25.664c-3.595 5.133-2.346 12.208 2.786 15.803a11.287 11.287 0 0 0 6.498 2.054c3.576 0 7.097-1.688 9.304-4.84l18.986-27.115c30.097 15.691 64.281 24.579 100.506 24.579 36.221 0 70.402-8.886 100.496-24.573l18.982 27.11a11.339 11.339 0 0 0 9.304 4.841c2.247 0 4.518-.666 6.498-2.054 5.133-3.596 6.38-10.669 2.786-15.803l-17.965-25.656c59.021-39.079 98.028-106.063 98.028-181.996.003-69.826-32.975-132.082-84.171-172.036m-28.566-75.067c20.089-19.425 51.829-22.564 75.553-5.955 23.724 16.613 31.629 47.514 20.246 73.033l-95.799-67.078zM27.818 106.47c-11.384-25.519-3.479-56.421 20.246-73.033a59.227 59.227 0 0 1 34.077-10.751c15.177 0 30.173 5.775 41.475 16.706L27.818 106.47zm201.188 375.46c-107.766 0-195.439-87.673-195.439-195.438 0-107.766 87.673-195.438 195.439-195.438s195.439 87.673 195.439 195.438c0 107.764-87.674 195.438-195.439 195.438"/><path clip-path="url(#anb)" d="M229.005 126.071c-88.456 0-160.421 71.965-160.421 160.42 0 88.456 71.965 160.421 160.421 160.421s160.42-71.965 160.42-160.421c0-88.455-71.964-160.42-160.42-160.42m106.64 251.013l-7.667-7.666c-4.431-4.431-11.614-4.431-16.046 0-4.431 4.432-4.431 11.615 0 16.046l7.666 7.667c-21.729 18.489-49.159 30.471-79.246 32.895v-10.912c0-6.265-5.08-11.346-11.347-11.346-6.267 0-11.347 5.081-11.347 11.346v10.912c-30.088-2.424-57.514-14.405-79.246-32.895l7.667-7.667c4.43-4.432 4.43-11.615 0-16.046-4.432-4.431-11.617-4.431-16.049 0l-7.667 7.667c-18.489-21.73-30.469-49.159-32.895-79.247h10.912c6.267 0 11.348-5.08 11.348-11.348 0-6.266-5.081-11.346-11.348-11.346H89.468c2.426-30.088 14.406-57.515 32.895-79.247l7.667 7.666a11.313 11.313 0 0 0 8.023 3.324c2.904 0 5.808-1.109 8.024-3.324 4.43-4.43 4.43-11.615 0-16.047l-7.667-7.667c21.731-18.489 49.158-30.47 79.246-32.895v10.913c0 6.266 5.08 11.347 11.347 11.347 6.267 0 11.347-5.081 11.347-11.347v-10.913c30.088 2.425 57.517 14.406 79.246 32.895l-7.666 7.667c-4.431 4.431-4.431 11.616 0 16.047a11.312 11.312 0 0 0 8.024 3.324 11.31 11.31 0 0 0 8.021-3.324l7.667-7.666c18.489 21.732 30.471 49.159 32.896 79.247h-10.913c-6.266 0-11.346 5.08-11.346 11.346 0 6.268 5.082 11.348 11.347 11.348h10.913c-2.422 30.088-14.405 57.516-32.894 79.246"/></symbol><symbol viewBox="0 0 29 29" id="close-main" xmlns="http://www.w3.org/2000/svg"><path fill-rule="evenodd" clip-rule="evenodd" d="M15.956 14.142l6.364 6.364-1.414 1.414-6.364-6.364-6.364 6.364-1.414-1.414 6.364-6.364-6.364-6.364 1.414-1.414 6.364 6.364 6.364-6.364 1.414 1.414-6.364 6.364z"/></symbol><symbol viewBox="0 0 34 8" id="constr-arrow" xmlns="http://www.w3.org/2000/svg"><path d="M33.354 4.354a.5.5 0 0 0 0-.708L30.172.464a.5.5 0 1 0-.707.708L32.293 4l-2.828 2.828a.5.5 0 1 0 .707.708l3.182-3.182zM0 4.5h33v-1H0v1z"/></symbol><symbol viewBox="0 0 22 22" id="constr-close" xmlns="http://www.w3.org/2000/svg"><path fill-rule="evenodd" clip-rule="evenodd" d="M5.5 16.5a7.778 7.778 0 1 1 11-11 7.778 7.778 0 0 1-11 11zm1-1a6.364 6.364 0 1 0 9-9 6.364 6.364 0 0 0-9 9zM14 13l-2-2 2-2-1-1-2 2-2-2-1 1 2 2-2 2 1 1 2-2 2 2 1-1z"/></symbol><symbol viewBox="0 0 4020 5120" id="document" xmlns="http://www.w3.org/2000/svg"><path d="M0 2560V0h2775l623 623 622 622v3875H0V2560zm995 1335c64-63-16-169-91-121-50 33-51 96-2 130 32 23 65 20 93-9zm1280 0c33-32 33-78 0-110l-24-25h-445c-309 0-453 3-470 11-35 16-52 61-37 98 7 16 22 33 34 39 14 7 178 11 470 11l448 1 24-25zm1021 2c20-17 27-33 27-57s-7-40-27-57l-27-23h-314c-212 0-322 4-339 11-35 16-52 61-37 98 7 16 22 33 34 39 14 7 139 11 339 11l317 1 27-23zm-849-599c24-23 30-66 13-98-21-39-50-40-797-40-793 0-774-1-790 58-9 36-5 53 20 80l20 22h1511l23-22zm428-3c29-28 32-61 9-93-34-49-97-48-130 2-48 75 58 155 121 91zm417 11c48-36 41-108-14-130-81-34-145 58-83 119 27 27 70 32 97 11zm-1018-605c35-33 35-79 0-112l-26-24-421-3c-232-2-437 0-456 3-41 8-81 46-81 78 0 31 34 74 63 80 12 3 219 4 459 3l436-1 26-24zm1000 15c73-31 66-124-12-145-60-17-595-14-637 3-35 15-55 42-55 74 0 27 36 70 63 75 12 2 154 5 315 6 228 1 300-2 326-13zm-2277-18c46-43 14-128-48-128-42 0-60 10-74 44-33 78 60 143 122 84zm429-601c31-36 30-67-1-101l-24-26H913l-23 25c-39 41-26 104 25 126 11 4 125 7 253 6l234-2 24-28zm399 23c28-11 56-64 47-89-20-60-85-79-127-36-40 39-31 96 20 123 25 14 28 14 60 2zm1049-19c34-32 34-74 1-106l-24-25h-658l-23 25c-39 41-26 105 25 126 11 4 163 7 337 6l316-2 26-24zm424 6c36-30 33-94-6-123-45-35-122 5-122 63 1 66 78 102 128 60zm-1532-690c30-36 30-68 0-104l-24-28-386-3c-431-3-459 0-481 50-9 23-10 39-3 61 20 55 33 57 471 54l399-2 24-28zm2064-60c0-1-265-268-590-592l-590-590v1185h590c325 0 590-1 590-3z"/></symbol><symbol viewBox="0 0 24 24" id="down-arrow" xmlns="http://www.w3.org/2000/svg"><path d="M22.586 12.54L12.54 22.586a.791.791 0 0 1-.54.223.792.792 0 0 1-.54-.223L1.414 12.54a.764.764 0 0 1 1.079-1.08l8.744 8.745V1.954c0-.428.335-.763.763-.763s.763.335.763.763v18.25l8.744-8.744a.763.763 0 0 1 1.079 0c.298.298.28.782 0 1.08z"/></symbol><symbol viewBox="0 0 5120 5120" id="factory" xmlns="http://www.w3.org/2000/svg"><path d="M2 3153l3-1967 1234-593C1918 267 2480 0 2489 0s603 267 1321 593l1305 593 3 1967 2 1967h-930V1930H930v3190H0l2-1967z"/><path d="M1190 4745v-255h590v510h-590v-255zm710 0v-255h590v510h-590v-255zm710 0v-255h590v510h-590v-255zm720 0v-255h590v510h-590v-255zm-2140-680v-255h590v510h-590v-255zm710 0v-255h590v510h-590v-255zm710 0v-255h590v510h-590v-255zm-1420-690v-255h590v510h-590v-255zm710 0v-255h590v510h-590v-255z"/></symbol><symbol viewBox="0 0 4200 5120" id="file" xmlns="http://www.w3.org/2000/svg"><path d="M779 5106c-122-43-179-136-187-303l-5-102 1404-3 1404-3 58-21c159-59 271-191 297-351 6-35 10-782 10-1907V567l109 6c136 7 193 29 256 99 81 91 75-94 75 2178 0 1769-2 2033-15 2077-19 65-85 139-150 169l-50 24-1585-1c-1269 0-1592-2-1621-13z"/><path d="M239 4540c-66-11-121-43-168-96-76-87-71 28-71-1650V1291l498-3 497-3 68-32c80-38 150-106 189-184 44-87 51-172 47-645l-4-424 1060 2 1060 3 46 27c56 33 94 76 123 138l21 45v4110l-21 46c-31 66-78 114-142 146l-57 28-1550 1c-852 1-1571-2-1596-6zm1689-990c32-20 62-71 62-106 0-31-34-87-64-105-29-18-60-19-559-19-595 0-569-3-607 76-30 61-14 112 50 157 22 16 70 17 555 17 514 0 531-1 563-20zm987-680c43-26 69-81 60-126-8-47-63-99-111-107-51-9-1957-9-2008 0-47 7-100 58-110 104-4 23 0 45 14 75 39 79-40 74 1104 74 1004 0 1019 0 1051-20zm-21-714c41-17 74-58 82-102 8-42-18-89-66-121l-33-23H1861c-989 0-1017 1-1048 20-92 56-87 176 9 223 30 15 133 17 1036 17 830 0 1008-2 1036-14z"/><path d="M62 1120c-42-26-66-80-57-129 5-31 73-102 478-508C894 72 960 11 992 5c49-9 103 10 128 45 19 27 20 43 20 469 0 348-3 448-13 474-22 52-68 98-122 123l-50 24H525c-414 0-431-1-463-20z"/></symbol><symbol viewBox="0 0 9 10" id="fon-bold" xmlns="http://www.w3.org/2000/svg"><path d="M.752 10V.047h3.575c1.28 0 2.254.235 2.92.704.669.47 1.004 1.15 1.004 2.044 0 .515-.119.955-.355 1.32-.237.364-.586.633-1.046.806.52.137.918.392 1.196.766.278.373.417.829.417 1.367 0 .975-.31 1.709-.93 2.2-.615.489-1.529.737-2.741.746H.752zm2.4-4.231v2.385h1.572c.433 0 .765-.098.998-.294.232-.2.348-.48.348-.84 0-.83-.412-1.247-1.237-1.251H3.151zm0-1.573h1.25c.524-.004.898-.1 1.121-.287.224-.187.335-.462.335-.827 0-.42-.12-.72-.362-.902-.241-.187-.631-.28-1.169-.28H3.151v2.296z"/></symbol><symbol viewBox="0 0 8 10" id="font-italic" xmlns="http://www.w3.org/2000/svg"><path d="M2.29.047h5.599l-.274 1.552h-1.88l-1.19 6.856h1.888L6.159 10H.561l.273-1.545h1.832L3.856 1.6h-1.84L2.29.047z"/></symbol><symbol viewBox="0 0 19 13" id="formcheck" xmlns="http://www.w3.org/2000/svg"><path fill-rule="evenodd" clip-rule="evenodd" d="M18.09.293c.382.39.382 1.024 0 1.414l-10.759 11a.963.963 0 0 1-1.383 0l-4.89-5a1.016 1.016 0 0 1 0-1.414.963.963 0 0 1 1.383 0l4.199 4.293L16.707.293a.963.963 0 0 1 1.383 0z"/></symbol><symbol viewBox="0 0 25.745 22.927" id="forms" xmlns="http://www.w3.org/2000/svg"><path d="M22.909 22.928h-4.396c-.749 0-1.242-.373-1.678-.701l-.086-.064-.351.088a3.342 3.342 0 0 1-.828.103H6.075c-2.135-.004-3.54-1.169-3.725-3.062C1.1 18.367.64 17.28.839 15.728.045 14.698-.3 13.675.324 12.003 0 10.818.154 9.718.764 8.89c.625-.847 1.673-1.314 2.953-1.315h4.532c-.277-2.025-.368-4.073.732-5.606C9.876.718 11.089 0 12.308 0c.73 0 1.39.263 1.857.74.443.453.68 1.078.666 1.759.037 2.427.166 2.773 1.155 4.359l1.06 1.343.156-.121a2.26 2.26 0 0 1 1.367-.465h4.337c1.561.005 2.833 1.286 2.839 2.857v9.595c-.005 1.572-1.278 2.855-2.836 2.861zm-6.053-1.807c.103 0 .203.031.289.092.101.071.197.145.293.217.384.29.661.499 1.075.499h4.392c1.028-.004 1.837-.822 1.841-1.863v-9.591c-.004-1.039-.813-1.856-1.841-1.859H18.57c-.271 0-.541.091-.757.257l-.547.422a.502.502 0 0 1-.698-.087L15.17 7.431c-1.153-1.84-1.3-2.389-1.339-4.935.009-.434-.123-.793-.381-1.057-.277-.283-.682-.439-1.142-.439-.893 0-1.809.565-2.514 1.551-.89 1.24-.841 3.005-.474 5.45a.501.501 0 0 1-.495.574H3.716c-.967 0-1.71.314-2.147.908-.446.605-.531 1.456-.24 2.395a.5.5 0 0 1-.013.333c-.577 1.44-.319 2.134.436 3.059a.5.5 0 0 1 .106.397c-.224 1.367.117 2.165 1.256 2.941a.501.501 0 0 1 .218.394c.061 1.514 1.035 2.349 2.744 2.351h9.495a2.3 2.3 0 0 0 .581-.072l.583-.146a.5.5 0 0 1 .121-.014z"/></symbol><symbol viewBox="0 0 32 32" id="forms-select" xmlns="http://www.w3.org/2000/svg"><path fill-rule="evenodd" clip-rule="evenodd" d="M20 12H2v18h18V12zM0 10v22h22V10H0z"/><path fill-rule="evenodd" clip-rule="evenodd" d="M21 20a9 9 0 1 0 0-18 9 9 0 0 0 0 18zm0 2c6.075 0 11-4.925 11-11S27.075 0 21 0 10 4.925 10 11s4.925 11 11 11z"/></symbol><symbol viewBox="0 0 24 24" id="forward-arrow" xmlns="http://www.w3.org/2000/svg"><path d="M0 11.333L9.333 2v5.333C18.667 8.667 22.667 15.333 24 22c-3.333-4.667-8-6.8-14.667-6.8v5.467L0 11.333z"/></symbol><symbol viewBox="0 0 512 512" id="gears" xmlns="http://www.w3.org/2000/svg"><defs><path id="bba" d="M0 0h511.999v512H0z"/></defs><clipPath id="bbb"><use xlink:href="#bba" overflow="visible"/></clipPath><path clip-path="url(#bbb)" d="M262.786 317.207a8.086 8.086 0 0 0-10.77-3.837 128.822 128.822 0 0 1-20.448 7.648 8.078 8.078 0 0 0-5.748 6.2l-8.552 42.758c-.844 4.221-4.582 7.287-8.888 7.287h-23.329c-4.306 0-8.043-3.065-8.888-7.287l-8.552-42.758a8.083 8.083 0 0 0-5.748-6.2 128.543 128.543 0 0 1-28.391-11.764 8.09 8.09 0 0 0-8.452.315L88.734 333.76c-3.582 2.387-8.392 1.911-11.438-1.134L60.8 316.132c-3.045-3.046-3.52-7.856-1.133-11.439l24.19-36.286a8.08 8.08 0 0 0 .317-8.451 128.42 128.42 0 0 1-11.764-28.392 8.083 8.083 0 0 0-6.2-5.748l-42.758-8.551a9.09 9.09 0 0 1-7.287-8.889v-23.328a9.087 9.087 0 0 1 7.287-8.888l42.758-8.553a8.081 8.081 0 0 0 6.2-5.748 128.44 128.44 0 0 1 11.764-28.39 8.086 8.086 0 0 0-.317-8.452L59.669 88.733a9.09 9.09 0 0 1 1.133-11.438L77.298 60.8c3.045-3.045 7.856-3.52 11.438-1.134l36.286 24.19a8.086 8.086 0 0 0 8.452.318 128.448 128.448 0 0 1 28.391-11.764 8.08 8.08 0 0 0 5.748-6.201l8.552-42.757a9.087 9.087 0 0 1 8.888-7.287h23.329a9.087 9.087 0 0 1 8.888 7.287l8.552 42.757a8.084 8.084 0 0 0 5.748 6.201 128.496 128.496 0 0 1 28.391 11.764 8.088 8.088 0 0 0 8.452-.318l36.285-24.19c3.582-2.387 8.392-1.91 11.438 1.134l16.496 16.495a9.09 9.09 0 0 1 1.132 11.438l-24.189 36.287a8.081 8.081 0 0 0-.316 8.452 128.448 128.448 0 0 1 11.764 28.391 8.081 8.081 0 0 0 6.2 5.748l42.758 8.552c4.223.844 7.286 4.582 7.286 8.888v23.328a9.088 9.088 0 0 1-7.286 8.889l-42.758 8.552a8.082 8.082 0 0 0-6.2 5.75 128.608 128.608 0 0 1-7.881 20.933 8.087 8.087 0 0 0 3.791 10.786 8.083 8.083 0 0 0 10.786-3.791 145.053 145.053 0 0 0 7.442-18.777l37.99-7.598c11.749-2.353 20.279-12.758 20.279-24.745V185.05c0-11.987-8.53-22.391-20.285-24.743l-37.989-7.599a144.549 144.549 0 0 0-9.434-22.769l21.492-32.238c6.647-9.973 5.323-23.364-3.154-31.839l-16.495-16.496c-8.477-8.476-21.867-9.801-31.84-3.154l-32.238 21.493a144.855 144.855 0 0 0-22.769-9.435l-7.598-37.989C230.772 8.53 220.366 0 208.38 0h-23.329c-11.986 0-22.391 8.531-24.743 20.285l-7.598 37.989a144.85 144.85 0 0 0-22.769 9.434L97.704 46.216c-9.972-6.648-23.363-5.324-31.839 3.153L49.369 65.865c-8.475 8.476-9.801 21.864-3.153 31.839l21.492 32.238a144.794 144.794 0 0 0-9.434 22.769l-37.991 7.599C8.53 162.66 0 173.065 0 185.052v23.329c0 11.986 8.53 22.39 20.284 24.743l37.99 7.598a144.672 144.672 0 0 0 9.434 22.768l-21.492 32.239c-6.648 9.973-5.323 23.364 3.153 31.839l16.496 16.496c8.476 8.477 21.866 9.8 31.839 3.154l32.239-21.492a144.711 144.711 0 0 0 22.769 9.433l7.598 37.992c2.35 11.75 12.756 20.282 24.742 20.282h23.329c11.986 0 22.391-8.531 24.743-20.285l7.598-37.99a144.68 144.68 0 0 0 18.228-7.18 8.086 8.086 0 0 0 3.836-10.771"/><path clip-path="url(#bbb)" d="M266.74 241.636a8.083 8.083 0 0 0 10.882-3.504c6.519-12.715 9.967-27.036 9.967-41.415 0-50.107-40.765-90.873-90.873-90.873-23.838 0-46.364 9.162-63.43 25.801a8.084 8.084 0 0 0 11.285 11.577c14.029-13.676 32.547-21.209 52.143-21.209 41.192 0 74.705 33.512 74.705 74.705 0 11.994-2.754 23.446-8.186 34.038a8.083 8.083 0 0 0 3.507 10.88m-145.697-79.511a8.083 8.083 0 0 0-10.274 5.014 90.728 90.728 0 0 0-4.924 29.577c0 50.108 40.766 90.873 90.873 90.873 19.271 0 37.683-5.956 53.247-17.227a8.086 8.086 0 0 0-9.483-13.098c-12.788 9.259-27.921 14.154-43.765 14.154-41.193 0-74.705-33.513-74.705-74.705 0-8.334 1.36-16.517 4.044-24.318a8.08 8.08 0 0 0-5.013-10.27m375.4 191.19l-23.378-4.675a98.006 98.006 0 0 0-5.128-12.373l13.228-19.838c5.098-7.649 4.083-17.92-2.418-24.42l-10.84-10.84c-6.501-6.5-16.772-7.518-24.42-2.417l-19.839 13.225a97.786 97.786 0 0 0-12.373-5.126l-4.676-23.377c-1.803-9.015-9.783-15.558-18.976-15.558h-15.331c-9.193 0-17.174 6.543-18.978 15.558l-4.676 23.377a98.204 98.204 0 0 0-12.373 5.126l-19.838-13.225c-7.648-5.1-17.92-4.083-24.42 2.417l-10.839 10.84c-6.501 6.501-7.517 16.771-2.418 24.42l13.225 19.838a97.938 97.938 0 0 0-6.604 17.177 8.085 8.085 0 1 0 15.571 4.358 81.483 81.483 0 0 1 7.476-18.043 8.083 8.083 0 0 0-.318-8.452l-15.896-23.845a3.197 3.197 0 0 1 .397-4.02l10.841-10.84a3.198 3.198 0 0 1 4.019-.396l23.844 15.896a8.08 8.08 0 0 0 8.452.318 81.624 81.624 0 0 1 18.043-7.478 8.072 8.072 0 0 0 5.748-6.199l5.62-28.098a3.193 3.193 0 0 1 3.123-2.559h15.331a3.196 3.196 0 0 1 3.123 2.559l5.619 28.101a8.079 8.079 0 0 0 5.748 6.198 81.67 81.67 0 0 1 18.043 7.477 8.081 8.081 0 0 0 8.452-.317l23.845-15.896a3.192 3.192 0 0 1 4.018.396l10.84 10.84a3.2 3.2 0 0 1 .399 4.02l-15.898 23.845a8.081 8.081 0 0 0-.315 8.452 81.547 81.547 0 0 1 7.475 18.043 8.08 8.08 0 0 0 6.2 5.748l28.097 5.619a3.194 3.194 0 0 1 2.562 3.124v15.331a3.196 3.196 0 0 1-2.562 3.123l-28.098 5.618a8.084 8.084 0 0 0-6.201 5.748 81.5 81.5 0 0 1-7.475 18.043 8.088 8.088 0 0 0 .315 8.451l15.898 23.846a3.194 3.194 0 0 1-.399 4.019l-10.84 10.84a3.193 3.193 0 0 1-4.018.398l-23.847-15.897a8.08 8.08 0 0 0-8.45-.315 81.683 81.683 0 0 1-18.043 7.475 8.078 8.078 0 0 0-5.748 6.2l-5.619 28.097a3.196 3.196 0 0 1-3.123 2.562h-15.331a3.195 3.195 0 0 1-3.123-2.562l-5.62-28.099a8.084 8.084 0 0 0-5.748-6.2 81.598 81.598 0 0 1-18.043-7.476 8.092 8.092 0 0 0-8.452.316l-23.844 15.898a3.195 3.195 0 0 1-4.02-.399l-10.841-10.84a3.199 3.199 0 0 1-.396-4.019l15.896-23.846a8.077 8.077 0 0 0 .318-8.451 81.621 81.621 0 0 1-7.477-18.043 8.08 8.08 0 0 0-6.199-5.748l-28.099-5.619a3.194 3.194 0 0 1-2.559-3.122v-15.331a3.193 3.193 0 0 1 2.559-3.123l1.722-.345a8.084 8.084 0 0 0 6.341-9.514c-.876-4.378-5.13-7.213-9.515-6.341l-1.721.344c-9.012 1.805-15.555 9.785-15.555 18.979v15.331c0 9.19 6.543 17.173 15.557 18.976l23.377 4.675a98.528 98.528 0 0 0 5.126 12.373l-13.225 19.838c-5.101 7.65-4.083 17.921 2.418 24.421l10.839 10.841c6.501 6.501 16.772 7.516 24.42 2.418l19.838-13.228a97.76 97.76 0 0 0 12.373 5.126l4.676 23.377c1.806 9.017 9.785 15.56 18.979 15.56h15.331c9.191 0 17.173-6.543 18.976-15.56l4.677-23.377a97.975 97.975 0 0 0 12.373-5.127l19.838 13.228c7.648 5.098 17.92 4.083 24.42-2.419l10.84-10.84c6.501-6.501 7.516-16.771 2.418-24.421l-13.227-19.838a97.933 97.933 0 0 0 5.126-12.373l23.378-4.675c9.014-1.803 15.557-9.784 15.557-18.976v-15.331c.002-9.192-6.54-17.173-15.555-18.977"/><path clip-path="url(#bbb)" d="M379.958 350.854c16.048 0 29.103 13.056 29.103 29.104a8.085 8.085 0 0 0 16.168 0c0-24.963-20.309-45.273-45.272-45.273-24.963 0-45.271 20.311-45.271 45.273 0 24.962 20.309 45.271 45.271 45.271 10.111 0 19.676-3.261 27.659-9.429a8.085 8.085 0 0 0-9.886-12.796c-5.128 3.961-11.274 6.056-17.773 6.056-16.048 0-29.103-13.055-29.103-29.102.001-16.049 13.056-29.104 29.104-29.104M245.969 196.716c0-27.158-22.096-49.253-49.253-49.253-27.158 0-49.253 22.096-49.253 49.253 0 27.158 22.095 49.253 49.253 49.253s49.253-22.096 49.253-49.253m-82.338 0c0-18.242 14.843-33.085 33.085-33.085s33.085 14.843 33.085 33.085-14.842 33.085-33.085 33.085c-18.244 0-33.085-14.843-33.085-33.085"/></symbol><symbol viewBox="0 0 16 16" id="help" xmlns="http://www.w3.org/2000/svg"><path fill-rule="evenodd" clip-rule="evenodd" d="M0 8a8 8 0 1 0 16 0A8 8 0 0 0 0 8zm14 0A6 6 0 1 1 2 8a6 6 0 0 1 12 0zm-7 2v-.5c0-1.218.424-1.818 1.4-2.55.524-.393.6-.501.6-.95a1 1 0 0 0-2 0H5a3 3 0 0 1 6 0c0 1.218-.424 1.818-1.4 2.55-.524.393-.6.501-.6.95v.5H7zm2 1.998a1 1 0 1 1-2 0 1 1 0 0 1 2 0z"/></symbol><symbol viewBox="0 0 32 32" id="image" xmlns="http://www.w3.org/2000/svg"><path d="M30.587 2.803H1.413C.633 2.803 0 3.437 0 4.216v23.568c0 .779.634 1.413 1.413 1.413h29.174c.78 0 1.413-.634 1.413-1.413V4.216c0-.779-.634-1.413-1.413-1.413zm0 24.98l-29.174.002V4.216h29.174v23.568z"/><path d="M27.936 6.161H4.064a.706.706 0 0 0-.706.707V22.48c0 .39.316.706.706.706h23.872c.39 0 .706-.316.706-.706V6.868a.706.706 0 0 0-.706-.707zM4.77 7.574h22.46v11.958l-4.452-4.451a.707.707 0 0 0-1 0l-2.713 2.714-6.223-6.223a.707.707 0 0 0-.998 0L4.77 18.645V7.574zm0 14.2v-1.131l7.573-7.572 8.703 8.702H4.77zm22.46 0h-4.186l-2.98-2.98 2.214-2.215 4.79 4.789a.649.649 0 0 0 .162.12v.286z"/><path d="M19.022 8.914a2.674 2.674 0 0 0-2.671 2.67 2.674 2.674 0 0 0 2.67 2.671 2.674 2.674 0 0 0 2.671-2.67 2.674 2.674 0 0 0-2.67-2.67zm0 3.929a1.26 1.26 0 0 1-1.258-1.258 1.26 1.26 0 0 1 1.258-1.258 1.26 1.26 0 0 1 1.257 1.258 1.26 1.26 0 0 1-1.257 1.258zm-8.814 11.936H4.064a.706.706 0 0 0 0 1.412h6.144a.706.706 0 1 0 0-1.412zm4.835 0h-1.611a.706.706 0 0 0 0 1.412h1.611a.706.706 0 0 0 0-1.412z"/></symbol><symbol viewBox="0 0 2280 5120" id="info" xmlns="http://www.w3.org/2000/svg"><path d="M943 5106c-222-42-386-143-493-302-80-121-95-183-95-399 1-238 13-299 187-915 207-735 240-893 218-1053-25-179-110-237-347-237-106 0-142 7-296 57-60 19-110 33-111 32-2-2 13-71 33-152l36-149 140-54c190-74 424-150 542-176 81-18 131-22 288-22 165 0 202 3 280 22 146 37 244 90 340 185 95 95 145 185 171 307 25 119 6 440-36 600-6 25-74 268-151 540-155 552-182 662-205 833-23 175-2 287 65 354 99 99 387 101 640 4 30-11 56-19 58-18 1 2-14 70-34 153l-36 149-181 69c-239 92-385 142-471 161-98 23-444 29-542 11zm575-3916c-252-43-476-248-517-474-55-300 107-571 407-684 55-21 90-26 198-30 112-4 141-1 210 17 203 56 374 217 435 411 27 85 29 240 4 326-48 170-194 327-367 395-109 43-254 58-370 39z"/></symbol><symbol viewBox="0 0 32 32" id="parfume" xmlns="http://www.w3.org/2000/svg"><path d="M19.96 7.32v.092l.09.027a13.922 13.922 0 0 1 5.845 3.507 13.9 13.9 0 0 1 4.098 9.895c0 4.224-1.88 8.179-5.159 10.851l.08.097-.08-.097-.224.183H7.39l-.224-.183-.08.097.08-.097a13.947 13.947 0 0 1-5.16-10.851c0-3.738 1.456-7.252 4.1-9.895a13.922 13.922 0 0 1 5.845-3.507l.089-.027V.125h7.92V7.32zm7.58 9.555h.177l-.06-.167c-1.603-4.51-5.752-7.823-10.71-8.2l-.134-.01v8.377H27.54zM13.79 1.75h-.125v5.29l.144-.022a14.182 14.182 0 0 1 4.382 0l.144.022V1.75H13.79zm1.398 6.883v-.135l-.135.01c-4.958.377-9.107 3.69-10.71 8.2l-.06.167h10.905V8.633zM23.98 30.25h.046l.035-.03a12.325 12.325 0 0 0 4.306-9.38c0-.763-.07-1.511-.203-2.238l-.019-.102H16.813v4.063h-1.625V18.5H3.854l-.019.102a12.39 12.39 0 0 0-.203 2.239c0 3.623 1.565 7.022 4.306 9.379l.035.03H23.98z"/><path d="M16.938 2.854h-1.875v1.797h1.875V2.854z"/></symbol><symbol viewBox="0 0 384.009 464" id="ribbon" xmlns="http://www.w3.org/2000/svg"><defs><path id="bga" d="M0 0h384.009v464H0z"/></defs><clipPath id="bgb"><use xlink:href="#bga" overflow="visible"/></clipPath><path clip-path="url(#bgb)" d="M382.325 403.096l-48.681-62.584a70.463 70.463 0 0 0 38.513-28.511c11.464-19.817 6.279-44 1.265-67.361a183.911 183.911 0 0 1-5.416-36.64 183.851 183.851 0 0 1 5.416-36.672c4.983-23.376 10.199-47.544-1.265-67.328-11.872-20.512-35.775-28.104-58.896-35.432a171.301 171.301 0 0 1-33.256-13.024 162.53 162.53 0 0 1-26.649-21.6C236.205 18.024 216.757 0 192.005 0c-24.752 0-44.2 18.024-61.36 33.936a162.563 162.563 0 0 1-26.64 21.608 171.282 171.282 0 0 1-33.248 12.992c-23.12 7.328-47.024 14.92-58.896 35.432-11.464 19.816-6.28 44-1.264 67.36A183.923 183.923 0 0 1 16.005 208a183.924 183.924 0 0 1-5.416 36.672c-4.984 23.376-10.2 47.544 1.264 67.329a70.468 70.468 0 0 0 38.552 28.503l-48.72 62.584a8 8 0 0 0 7.312 12.848l57.2-7.143 14.12 49.407a7.997 7.997 0 0 0 7.688 5.801 8.009 8.009 0 0 0 6.32-3.088l51.088-65.713a73.992 73.992 0 0 0 46.592 20.801 73.99 73.99 0 0 0 46.592-20.801l51.087 65.688a8.004 8.004 0 0 0 6.321 3.113 7.997 7.997 0 0 0 7.687-5.801l14.12-49.4 57.201 7.144a8 8 0 0 0 7.312-12.848m-290.96 35.551L79.693 397.8a8 8 0 0 0-8.68-5.736l-44.8 5.602 40.152-51.617 4.424 1.416a171.217 171.217 0 0 1 33.216 12.993 162.413 162.413 0 0 1 26.648 21.599l2.752 2.544-42.04 54.046zm100.64-38.646c-18.48 0-34.024-14.401-50.488-29.665a176.344 176.344 0 0 0-29.512-23.736 185.49 185.49 0 0 0-36.424-14.399c-21.144-6.712-41.12-13.049-49.888-28.199-8.368-14.474-4.048-34.642.536-56a195.937 195.937 0 0 0 5.776-40.001 195.827 195.827 0 0 0-5.768-40c-4.584-21.352-8.904-41.52-.536-56 8.8-15.152 28.744-21.488 49.888-28.2a185.546 185.546 0 0 0 36.416-14.4 176.336 176.336 0 0 0 29.504-23.736C157.981 30.4 173.525 16 192.005 16s34.024 14.4 50.488 29.664A176.35 176.35 0 0 0 272.006 69.4a185.444 185.444 0 0 0 36.424 14.4c21.144 6.712 41.12 13.048 49.888 28.2 8.367 14.472 4.048 34.64-.536 56a195.837 195.837 0 0 0-5.775 40c.538 13.497 2.47 26.9 5.767 40.001 4.584 21.351 8.905 41.519.536 56-8.799 15.15-28.744 21.487-49.887 28.199a185.58 185.58 0 0 0-36.416 14.399 176.343 176.343 0 0 0-29.505 23.736c-16.473 15.265-32.017 29.666-50.497 29.666m121.032-7.938a8.003 8.003 0 0 0-8.681 5.736l-11.712 40.848-42.031-54.04 2.752-2.544a162.465 162.465 0 0 1 26.641-21.606 171.172 171.172 0 0 1 33.248-12.993l4.424-1.416 40.16 51.617-44.801-5.602z"/><path clip-path="url(#bgb)" d="M192.005 64c-79.529 0-144 64.471-144 144 0 79.528 64.471 144 144 144s144-64.472 144-144c-.092-79.491-64.509-143.907-144-144m0 272c-70.692 0-128-57.309-128-128 0-70.692 57.308-128 128-128 70.692 0 128 57.308 128 128-.085 70.657-57.342 127.916-128 128"/><path clip-path="url(#bgb)" d="M284.308 174.584A15.995 15.995 0 0 0 271.381 168h-48.977l-15.199-46.616c-2.76-8.395-11.802-12.963-20.197-10.204a16.002 16.002 0 0 0-10.204 10.204L161.645 168h-49.016c-8.837-.004-16.004 7.155-16.008 15.992a15.996 15.996 0 0 0 6.584 12.944l39.648 28.8-15.144 46.616c-2.732 8.403 1.866 17.43 10.27 20.162a16.002 16.002 0 0 0 14.354-2.275l39.672-28.792 39.656 28.801a15.773 15.773 0 0 0 18.815 0 15.77 15.77 0 0 0 5.809-17.888l-15.145-46.624 39.649-28.8c7.144-5.2 8.72-15.208 3.519-22.352m-57.279 41.632a7.998 7.998 0 0 0-2.903 8.952l16.943 52.145-44.359-32.225a8 8 0 0 0-9.4 0l-44.361 32.225 16.936-52.145a8 8 0 0 0-2.903-8.944L112.629 184h54.824a8 8 0 0 0 7.608-5.528l16.944-52.144 16.944 52.136a8 8 0 0 0 7.607 5.528l54.825.008-44.352 32.216z"/></symbol><symbol viewBox="0 0 2860 5120" id="robot" xmlns="http://www.w3.org/2000/svg"><path d="M524 5106c-18-14-19-35-22-730l-2-715-33 19c-61 38-117 15-117-47 0-29 8-43 49-82 78-73 82-160 11-231-66-66-156-67-221-1-63 63-65 148-4 221 49 58 47 103-3 129-34 18-64 7-105-38-131-145-85-381 91-468 47-23 70-28 133-28 66 0 84 4 137 32l62 32v-119H336c-159 0-212-8-228-33-4-7-8-339-8-738 0-691 1-727 18-742s64-17 475-17h457v-150h-88c-75 0-96-4-140-26-29-14-65-42-82-62-57-70-60-92-60-471 0-222 4-360 11-386 18-63 62-118 120-149 44-24 67-30 146-34l93-5V150c0-101 3-119 18-133 17-15 57-17 365-17h346l15 22c12 17 16 49 16 134v112l88 4c135 7 210 50 256 148 20 42 21 64 24 382 2 203-1 359-7 393-13 71-58 137-119 172-40 24-60 28-144 31l-98 4v148h458c432 0 460 1 475 18 16 17 17 83 17 743 0 398-4 729-8 736-16 25-69 33-228 33h-164v119l62-32c53-28 71-32 137-32 63 0 86 5 133 28 148 73 210 256 135 403-27 53-87 114-113 114-19 0-56-19-66-34-17-25-7-66 27-106 61-73 59-158-4-221-64-65-153-65-220-1-72 69-69 158 10 235 40 39 49 55 49 82 0 60-57 82-117 45l-33-20v694c0 688-2 738-33 758-7 4-202 8-433 8-380 0-423-2-435-17-10-11-15-52-17-125-2-59-8-108-13-108s-9 43-9 96c0 90-9 130-34 146-6 4-198 8-427 8-343 0-419-2-435-14zm756-176v-60H640v120h640v-60zm940 0v-60h-640v120h640v-60zm-780-865c0-437-3-665-10-665s-10 228-10 665 3 665 10 665 10-228 10-665zm631-1264l24-19v-467c0-450-1-467-19-481-26-19-55-18-78 3-17 15-18 43-18 477 0 254 4 466 8 472 7 11 42 33 53 34 4 0 17-9 30-19zm-401-1326v-75h-480v150h480v-75zm309-230c60-30 62-50 59-423-3-357-4-362-52-392-32-20-1057-22-1103-2-60 26-63 43-63 412 0 361 2 374 58 404 40 22 1059 23 1101 1zM1670 200v-70h-480v140h480v-70z"/><path d="M1820 958c-13-5-28-14-32-21s-8-91-8-188c0-196 4-209 68-209 58 0 62 12 62 208 0 97-4 182-8 189-13 20-55 31-82 21z"/></symbol><symbol viewBox="0 0 12 12" id="rotate" xmlns="http://www.w3.org/2000/svg"><path fill-rule="evenodd" clip-rule="evenodd" d="M2.516 3H4.8v1.2H.6V0h1.2v1.962C2.835.71 4.317 0 6 0a6 6 0 1 1-6 6h1.2A4.8 4.8 0 1 0 6 1.2c-1.436 0-2.668.647-3.484 1.8z"/></symbol><symbol viewBox="0 0 5120 5020" id="shop-labels" xmlns="http://www.w3.org/2000/svg"><path d="M2255 5009c-29-8-295-264-295-284 0-5 590-600 1311-1320 720-721 1322-1329 1336-1353 14-23 31-63 39-89 9-29 34-312 64-718 28-368 52-689 55-712l6-42 62-6c34-4 94-7 132-8 115-3 155 39 155 160-1 37-29 442-64 898-49 648-66 837-79 860-23 44-2587 2602-2620 2615-33 12-60 12-102-1z"/><path d="M1676 4535c-32-11-209-182-844-817-442-442-810-815-818-830-18-35-18-101 0-136 22-41 2587-2600 2618-2611 15-6 425-40 912-77 880-66 884-66 923-48 23 12 46 33 58 56l19 36-67 892c-48 642-71 899-81 918-8 15-599 611-1313 1325-922 921-1304 1297-1320 1297-12 0-27 2-35 5-7 2-31-2-52-10zm1895-3159c160-37 270-174 270-334 0-137-67-242-201-313-38-20-59-24-140-24-113 0-166 21-243 98-165 162-118 442 91 547 77 38 141 46 223 26z"/></symbol><symbol viewBox="0 0 4400 5120" id="shopping-bag" xmlns="http://www.w3.org/2000/svg"><path d="M7 5113c-4-3-7-34-7-67 1-102 275-3660 284-3674 5-9 95-12 381-12h373l4-197c4-171 8-211 30-294 55-204 156-378 307-530 151-151 324-251 530-307 88-24 112-26 291-26s203 2 291 26c344 93 630 336 773 657 70 156 88 249 94 474l4 197h748l9 23c10 29 284 3640 279 3692l-3 40-2191 3c-1205 1-2194-1-2197-5zm1359-2678c76-37 152-114 190-190 27-55 29-69 29-170s-2-115-29-169c-34-69-96-135-155-166l-41-20v207c0 190-2 211-20 241-30 48-75 72-140 72s-110-24-140-72c-18-30-20-51-20-241v-207l-41 20c-59 31-127 102-157 168-24 51-27 69-27 167 0 99 3 115 27 165 36 73 86 130 148 170 75 48 122 60 226 57 76-2 100-7 150-32zm2000 0c76-37 152-114 190-190 27-55 29-69 29-170s-2-115-29-169c-34-69-96-135-155-166l-41-20v207c0 190-2 211-20 241-30 48-75 72-140 72s-110-24-140-72c-18-30-20-51-20-241v-207l-41 20c-59 31-127 102-157 168-24 51-27 69-27 167 0 99 3 115 27 165 36 73 86 130 148 170 75 48 122 60 226 57 76-2 100-7 150-32zm-326-1152c0-125-19-286-41-360-84-271-292-478-569-565-65-20-95-23-230-23s-165 3-230 23c-277 87-485 294-569 565-22 74-41 235-41 360v77h1680v-77z"/></symbol><symbol viewBox="0 0 32 32" id="shopping-form" xmlns="http://www.w3.org/2000/svg"><g clip-path="url(#bla)"><path d="M20.564 3.954A4.63 4.63 0 0 0 16 0a4.628 4.628 0 0 0-3.725 1.893.542.542 0 1 0 .876.64A3.541 3.541 0 0 1 16 1.085a3.54 3.54 0 0 1 3.49 3.022.543.543 0 0 0 1.074-.153zm7.833 6.072L26.77 7.314a.542.542 0 0 0-.465-.263h-1.56a.542.542 0 0 0 0 1.084h1.253l.976 1.627H5.025l.977-1.627h.574a.543.543 0 0 0 0-1.084h-.881c-.191 0-.368.1-.466.263l-1.627 2.712a.543.543 0 0 0 .465.821h23.865a.542.542 0 0 0 .465-.821z"/><path d="M25.694 5.025a.541.541 0 0 0-.338-.242l-7.394-1.73a.543.543 0 0 0-.651.405l-.558 2.383a.542.542 0 1 0 1.056.247l.435-1.855 6.337 1.482-.996 4.258a.542.542 0 1 0 1.056.247l1.12-4.786a.54.54 0 0 0-.067-.41zm-9.407 1.282l-.495-4.18a.542.542 0 0 0-.602-.475L6.119 2.724a.542.542 0 0 0-.475.603l.824 6.971a.543.543 0 1 0 1.077-.127l-.76-6.433 7.994-.945.43 3.641a.543.543 0 0 0 1.078-.127z"/><path d="M20.576 10.099L19.5 5.622a.544.544 0 0 0-.655-.4l-8.737 2.101a.542.542 0 0 0-.4.654l.537 2.238A.542.542 0 1 0 11.3 9.96l-.411-1.71 7.682-1.847.95 3.949a.542.542 0 1 0 1.055-.254z"/><path d="M28.474 10.277a.542.542 0 0 0-.542-.514H4.068a.542.542 0 0 0-.542.514L2.44 31.43a.542.542 0 0 0 .542.57h26.034a.544.544 0 0 0 .542-.57l-1.085-21.152zM3.554 30.916l1.029-20.067h22.834l1.029 20.067H3.554z"/><path d="M20.067 11.932c-.897 0-1.627.73-1.627 1.627a1.628 1.628 0 0 0 3.255 0 1.63 1.63 0 0 0-1.628-1.627zm0 2.17a.543.543 0 1 1 .002-1.086.543.543 0 0 1-.002 1.086zm-8.135-2.17c-.897 0-1.627.73-1.627 1.627 0 .898.73 1.627 1.627 1.627s1.627-.73 1.627-1.627-.73-1.627-1.627-1.627zm0 2.17a.543.543 0 1 1 .001-1.086.543.543 0 0 1-.001 1.086z"/><path d="M20.067 13.56h-.041a.543.543 0 0 0-.5.75v2.775A3.53 3.53 0 0 1 16 20.61a3.53 3.53 0 0 1-3.526-3.525v-2.983a.542.542 0 0 0-1.084 0v2.983a4.615 4.615 0 0 0 4.61 4.61 4.615 4.615 0 0 0 4.61-4.61v-2.983c0-.3-.243-.543-.543-.543z"/></g><defs><clipPath id="bla"><path d="M0 0h32v32H0z"/></clipPath></defs></symbol><symbol viewBox="0 0 24 24" id="up-arrow" xmlns="http://www.w3.org/2000/svg"><path d="M22.586 11.46L12.54 1.414A.791.791 0 0 0 12 1.19a.791.791 0 0 0-.54.223L1.414 11.46a.764.764 0 0 0 1.079 1.08l8.744-8.745v18.252c0 .427.335.762.763.762a.754.754 0 0 0 .763-.762V3.795l8.744 8.745a.763.763 0 0 0 1.079 0c.298-.298.28-.782 0-1.08z"/></symbol><symbol viewBox="0 0 800 810" id="user" xmlns="http://www.w3.org/2000/svg"><path d="M289 797C184 767 91 689 37 585 6 528 5 520 5 410s2-119 32-181C95 112 203 33 340 8c165-31 353 70 428 230 24 51 27 68 27 172 0 110-1 118-32 176-42 80-108 146-188 185-54 26-78 32-152 35-53 2-106-1-134-9zm224-118l28-15-23-34c-61-91-182-89-238 3-11 17-18 33-15 35 32 32 194 39 248 11zM218 528c13-14 37-32 52-38l28-12-24-35c-31-46-33-123-4-171 22-35 88-72 130-72s108 37 130 72c29 48 27 125-4 171l-24 35 29 12c31 13 89 73 89 92 0 22 28-13 50-63 60-141-2-302-145-377-71-37-179-37-250 0-163 85-216 277-118 427 15 23 16 23 26 5 5-10 21-31 35-46zm210-140c34-34-6-90-48-68-35 19-20 80 20 80 9 0 21-5 28-12z"/></symbol><symbol viewBox="0 0 20 11.434" id="vk" xmlns="http://www.w3.org/2000/svg"><defs><path id="boa" d="M0 0h20v11.434H0z"/></defs><clipPath id="bob"><use xlink:href="#boa" overflow="visible"/></clipPath><path clip-path="url(#bob)" d="M17.802 8.015s1.617 1.597 2.018 2.336a.142.142 0 0 1 .018.035c.163.273.203.486.123.646-.135.26-.592.392-.747.402h-2.857c-.199 0-.613-.052-1.116-.399-.387-.27-.77-.712-1.141-1.146-.554-.644-1.032-1.201-1.518-1.201a.571.571 0 0 0-.18.03c-.367.115-.833.639-.833 2.031 0 .437-.345.685-.586.685H9.674c-.446 0-2.768-.156-4.827-2.327C2.324 6.449.058 1.117.036 1.07-.105.725.191.537.511.537h2.886c.387 0 .513.234.601.444.102.241.48 1.205 1.1 2.288 1.004 1.762 1.621 2.479 2.114 2.479a.527.527 0 0 0 .264-.07C8.12 5.324 8 3.024 7.97 2.55c0-.092-.001-1.027-.331-1.479-.236-.324-.638-.45-.881-.496.065-.094.203-.238.38-.323C7.579.032 8.376 0 9.167 0h.439c.858.012 1.08.067 1.392.146.628.15.64.557.585 1.943-.016.396-.033.842-.033 1.367 0 .112-.005.237-.005.364-.019.711-.044 1.512.458 1.841a.41.41 0 0 0 .217.062c.174 0 .695 0 2.108-2.425.62-1.071 1.1-2.334 1.133-2.429.028-.053.112-.202.214-.262a.481.481 0 0 1 .236-.056h3.395c.37 0 .621.056.67.196.082.227-.016.92-1.565 3.016-.261.349-.49.651-.691.915-1.406 1.843-1.406 1.937.082 3.337"/></symbol><symbol viewBox="0 0 20 15.4" id="yt" xmlns="http://www.w3.org/2000/svg"><defs><path id="bpa" d="M0 0h20v15.4H0z"/></defs><clipPath id="bpb"><use xlink:href="#bpa" overflow="visible"/></clipPath><path clip-path="url(#bpb)" d="M10 0C.172 0 0 .875 0 7.7c0 6.826.172 7.7 10 7.7s10-.874 10-7.7C20 .875 19.828 0 10 0m3.205 8.034l-4.49 2.096c-.393.183-.715-.022-.715-.456V5.726c0-.433.322-.638.715-.456l4.49 2.096c.393.184.393.484 0 .668"/></symbol></svg>