<?xml version="1.0" encoding="utf-8"?>
<!-- Generator: Adobe Illustrator 14.0.0, SVG Export Plug-In . SVG Version: 6.00 Build 43363)  -->
<!DOCTYPE svg PUBLIC "-//W3C//DTD SVG 1.1//EN" "http://www.w3.org/Graphics/SVG/1.1/DTD/svg11.dtd">
<svg version="1.1" id="Layer_1" xmlns="http://www.w3.org/2000/svg" xmlns:xlink="http://www.w3.org/1999/xlink" x="0px" y="0px"
	 width="34.322px" height="34.322px" viewBox="0 0 34.322 34.322" enable-background="new 0 0 34.322 34.322" xml:space="preserve">
<g>
	<path d="M31.035,34.322H3.286C1.474,34.322,0,32.848,0,31.036V4.719C0,2.117,2.118,0,4.72,0h2.684c1.123,0,2.212,0.409,3.063,1.136
		c1.004-0.418,2.156-0.496,3.27-0.132l2.553,0.829c1.127,0.365,2.007,1.06,2.573,2.025c1.078-0.079,2.195,0.2,3.139,0.885
		l2.171,1.578c1.1,0.797,1.662,1.626,1.837,2.726c1.049,0.255,2.016,0.869,2.697,1.808l1.578,2.171
		c0.701,0.964,1.005,2.046,0.893,3.158c0.924,0.566,1.658,1.45,2.018,2.556l0.83,2.553c0.3,0.924,0.304,1.929,0.014,2.857
		c0.183,0.408,0.284,0.86,0.284,1.336v5.551C34.322,32.848,32.848,34.322,31.035,34.322L31.035,34.322z M3.286,23.638
		c-1.018,0-1.846,0.828-1.846,1.847v5.551c0,1.019,0.828,1.847,1.846,1.847h27.749c1.019,0,1.848-0.828,1.848-1.847v-5.551
		c0-1.019-0.829-1.847-1.848-1.847H7.191c-0.011,0-0.022,0-0.033,0H3.286L3.286,23.638z M4.72,1.441c-1.809,0-3.28,1.471-3.28,3.278
		v18.048c0.106-0.072,0.218-0.14,0.333-0.199c0.006-0.032,0.014-0.065,0.024-0.098L7.79,4.033C8.06,3.2,8.542,2.494,9.157,1.953
		c-0.521-0.331-1.13-0.512-1.752-0.512H4.72L4.72,1.441z M11.767,22.199h19.268c0.655,0,1.267,0.192,1.78,0.524
		c-0.002-0.331-0.056-0.663-0.16-0.986l-0.83-2.553c-0.287-0.885-0.92-1.564-1.702-1.938c-0.028-0.011-0.056-0.023-0.081-0.038
		c-0.715-0.318-1.545-0.387-2.352-0.129L11.767,22.199L11.767,22.199z M3.4,22.199h0.085L15.409,5.787
		c0.519-0.713,1.202-1.239,1.959-1.563c-0.379-0.471-0.896-0.819-1.523-1.022l-2.553-0.83c-0.87-0.283-1.772-0.181-2.525,0.21
		c-0.053,0.04-0.11,0.071-0.169,0.094C9.939,3.07,9.414,3.693,9.159,4.478L3.4,22.199L3.4,22.199z M24.885,10.351
		c-0.669,0-1.343,0.203-1.925,0.625L7.87,21.939l19.38-6.231c0.841-0.27,1.701-0.292,2.507-0.106
		c-0.026-0.604-0.239-1.183-0.637-1.73l-1.578-2.171C26.901,10.819,25.9,10.351,24.885,10.351L24.885,10.351z M18.525,5.359
		c-0.758,0.166-1.46,0.599-1.952,1.274L5.492,21.886L22.114,9.811c0.727-0.528,1.556-0.818,2.392-0.884
		c-0.168-0.541-0.526-0.967-1.18-1.44l-2.171-1.578c-0.747-0.542-1.648-0.725-2.495-0.575C18.616,5.346,18.57,5.355,18.525,5.359
		L18.525,5.359z"/>
	<path d="M6.041,30.754L6.041,30.754c-1.24,0-2.271-0.916-2.451-2.178c-0.179-1.255,0.56-2.315,1.883-2.702
		c1.478-0.432,2.88,0.563,3.066,2.102c0.131,1.083-0.391,2.337-1.854,2.698C6.47,30.727,6.252,30.754,6.041,30.754L6.041,30.754z
		 M6.208,27.206c-0.104,0-0.215,0.018-0.332,0.052c-0.884,0.258-0.896,0.866-0.861,1.116c0.067,0.467,0.44,0.94,1.025,0.94
		c0,0,0,0,0,0c0.096,0,0.197-0.013,0.301-0.038c0.815-0.201,0.794-0.912,0.768-1.126C7.054,27.696,6.749,27.206,6.208,27.206
		L6.208,27.206z"/>
</g>
</svg>
