<svg width="32" height="32" viewBox="0 0 32 32" fill="none" xmlns="http://www.w3.org/2000/svg">
<g clip-path="url(#clip0)">
<path d="M29.6871 15.3751H25.0614V0.625049C25.0614 0.372299 24.9091 0.144361 24.6756 0.0476111C24.442 -0.0492015 24.1731 0.00442354 23.9945 0.183049L22.2239 1.95355L20.4535 0.183111C20.2094 -0.0609514 19.8136 -0.0609514 19.5695 0.183111L17.799 1.95361L16.0287 0.183111C15.7846 -0.0609514 15.3889 -0.0609514 15.1448 0.183111L13.3743 1.95361L11.6037 0.183111C11.3596 -0.0609514 10.9639 -0.0609514 10.7198 0.183111L8.94933 1.95361L7.17895 0.183111C6.93489 -0.0609514 6.53914 -0.0609514 6.29501 0.183111L4.52451 1.95361L2.75408 0.183111C2.51151 -0.0594515 2.1192 -0.0607015 1.87451 0.179674C1.74601 0.305986 1.6837 0.474299 1.68801 0.641486V28.7501C1.68801 30.5421 3.14589 32 4.93789 32H27.0614C27.0615 32 27.0616 32 27.0617 32C27.0619 32 27.0621 32 27.0623 32C28.8543 32 30.3121 30.5421 30.3121 28.7501V16C30.3121 15.6548 30.0323 15.3751 29.6871 15.3751ZM4.93789 30.75C3.83508 30.75 2.93795 29.8528 2.93795 28.7501V2.13474L4.08258 3.27936C4.32664 3.52342 4.72239 3.52342 4.96651 3.27936L6.73701 1.50886L8.50751 3.27936C8.75158 3.52342 9.14733 3.52342 9.39145 3.27936L11.162 1.50886L12.9325 3.27936C13.1766 3.52342 13.5723 3.52342 13.8164 3.27936L15.5869 1.50886L17.3574 3.27936C17.6015 3.52342 17.9972 3.52342 18.2413 3.27936L20.0118 1.50886L21.7823 3.27936C22.0265 3.52342 22.4222 3.52342 22.6662 3.27936L23.8118 2.13386V16C23.8118 16.0057 23.8125 16.0112 23.8126 16.0169V28.7501C23.8126 29.5039 24.0714 30.1981 24.5037 30.75H4.93789ZM29.0621 28.7501C29.0621 29.8528 28.165 30.75 27.0622 30.75C25.9595 30.75 25.0623 29.8528 25.0623 28.7501V16.625H29.0621V28.7501Z" fill="white"/>
<path d="M13.3747 9.92836C12.7544 9.92836 12.2498 9.49623 12.2498 8.96517C12.2498 8.43404 12.7544 8.00192 13.3747 8.00192C13.995 8.00192 14.4996 8.43404 14.4996 8.96517C14.4996 9.31036 14.7794 9.59017 15.1246 9.59017C15.4698 9.59017 15.7496 9.31036 15.7496 8.96517C15.7496 7.94636 15.0069 7.08673 13.9997 6.83036V6.40698C13.9997 6.06179 13.7199 5.78198 13.3747 5.78198C13.0295 5.78198 12.7497 6.06179 12.7497 6.40698V6.83036C11.7424 7.08673 10.9998 7.94642 10.9998 8.96517C10.9998 10.1855 12.0652 11.1783 13.3747 11.1783C13.995 11.1783 14.4996 11.6104 14.4996 12.1415C14.4996 12.6727 13.995 13.1047 13.3747 13.1047C12.7544 13.1047 12.2498 12.6726 12.2498 12.1415C12.2498 11.7964 11.9699 11.5165 11.6248 11.5165C11.2796 11.5165 10.9998 11.7964 10.9998 12.1415C10.9998 13.1604 11.7425 14.02 12.7497 14.2764V14.7864C12.7497 15.1315 13.0295 15.4114 13.3747 15.4114C13.7199 15.4114 13.9997 15.1315 13.9997 14.7864V14.2764C15.0069 14.02 15.7496 13.1604 15.7496 12.1415C15.7496 10.9212 14.6842 9.92836 13.3747 9.92836Z" fill="white"/>
<path d="M19.6538 9.92847H18.4357C18.0905 9.92847 17.8107 10.2083 17.8107 10.5535C17.8107 10.8987 18.0905 11.1785 18.4357 11.1785H19.6538C19.999 11.1785 20.2788 10.8987 20.2788 10.5535C20.2788 10.2083 19.999 9.92847 19.6538 9.92847Z" fill="white"/>
<path d="M8.31371 9.92847H7.09558C6.75039 9.92847 6.47058 10.2083 6.47058 10.5535C6.47058 10.8987 6.75039 11.1785 7.09558 11.1785H8.31371C8.65889 11.1785 8.93871 10.8987 8.93871 10.5535C8.93871 10.2083 8.65889 9.92847 8.31371 9.92847Z" fill="white"/>
<path d="M19.9701 16.8755H10.0686C9.72342 16.8755 9.4436 17.1553 9.4436 17.5005C9.4436 17.8457 9.72342 18.1255 10.0686 18.1255H19.9701C20.3152 18.1255 20.5951 17.8457 20.5951 17.5005C20.595 17.1553 20.3152 16.8755 19.9701 16.8755Z" fill="white"/>
<path d="M7.22111 17.0586C7.10486 16.9424 6.94361 16.8755 6.77924 16.8755C6.61486 16.8755 6.45361 16.9424 6.33736 17.0586C6.22111 17.1749 6.15424 17.3361 6.15424 17.5005C6.15424 17.6649 6.22111 17.8261 6.33736 17.9424C6.45361 18.0586 6.61486 18.1255 6.77924 18.1255C6.94361 18.1255 7.10486 18.0586 7.22111 17.9424C7.33736 17.8261 7.40424 17.6649 7.40424 17.5005C7.40424 17.3361 7.33736 17.1749 7.22111 17.0586Z" fill="white"/>
<path d="M19.9701 21.0002H10.0686C9.72342 21.0002 9.4436 21.2801 9.4436 21.6252C9.4436 21.9704 9.72342 22.2502 10.0686 22.2502H19.9701C20.3152 22.2502 20.5951 21.9704 20.5951 21.6252C20.595 21.2801 20.3152 21.0002 19.9701 21.0002Z" fill="white"/>
<path d="M7.22111 21.1834C7.10486 21.0671 6.94361 21.0002 6.77924 21.0002C6.61486 21.0002 6.45361 21.0671 6.33736 21.1834C6.22111 21.2996 6.15424 21.4609 6.15424 21.6252C6.15424 21.7896 6.22111 21.9509 6.33736 22.0671C6.45361 22.1834 6.61486 22.2502 6.77924 22.2502C6.94361 22.2502 7.10486 22.1834 7.22111 22.0671C7.33736 21.9509 7.40424 21.7896 7.40424 21.6252C7.40424 21.4609 7.33736 21.2996 7.22111 21.1834Z" fill="white"/>
<path d="M19.9701 25.1252H10.0686C9.72342 25.1252 9.4436 25.4051 9.4436 25.7502C9.4436 26.0954 9.72342 26.3752 10.0686 26.3752H19.9701C20.3152 26.3752 20.5951 26.0954 20.5951 25.7502C20.5951 25.4051 20.3152 25.1252 19.9701 25.1252Z" fill="white"/>
<path d="M7.22111 25.3084C7.10486 25.1921 6.94361 25.1252 6.77924 25.1252C6.61486 25.1252 6.45361 25.1921 6.33736 25.3084C6.22111 25.4246 6.15424 25.5859 6.15424 25.7502C6.15424 25.9146 6.22111 26.0759 6.33736 26.1921C6.45361 26.3084 6.61486 26.3752 6.77924 26.3752C6.94361 26.3752 7.10486 26.3084 7.22111 26.1921C7.33736 26.0759 7.40424 25.9146 7.40424 25.7502C7.40424 25.5859 7.33736 25.4246 7.22111 25.3084Z" fill="white"/>
</g>
<defs>
<clipPath id="clip0">
<rect width="32" height="32" fill="white"/>
</clipPath>
</defs>
</svg>
