<svg width="32" height="32" viewBox="0 0 32 32" fill="none" xmlns="http://www.w3.org/2000/svg">
<g clip-path="url(#clip0)">
<path d="M28.2604 4.79991C28.2604 4.50539 28.0216 4.2666 27.7271 4.2666H12.7944C12.4999 4.2666 12.2611 4.50539 12.2611 4.79991V6.93315C12.2611 7.22767 12.4999 7.46646 12.7944 7.46646C13.0889 7.46646 13.3277 7.22767 13.3277 6.93315V5.33322H27.1938V8.53308H15.461C15.1664 8.53308 14.9276 8.77187 14.9276 9.06639C14.9276 9.36091 15.1664 9.5997 15.461 9.5997H27.7271C28.0216 9.5997 28.2604 9.36091 28.2604 9.06639V4.79991Z" fill="white"/>
<path d="M21.8607 12.7995C22.1552 12.7995 22.394 12.5607 22.394 12.2662C22.394 11.9717 22.1552 11.7329 21.8607 11.7329H18.6608C18.3663 11.7329 18.1275 11.9717 18.1275 12.2662V15.4661C18.1275 15.7606 18.3663 15.9994 18.6608 15.9994H21.8607C22.1552 15.9994 22.394 15.7606 22.394 15.4661C22.394 15.1716 22.1552 14.9328 21.8607 14.9328H19.1941V12.7995H21.8607Z" fill="white"/>
<path d="M28.2604 12.2662C28.2604 11.9717 28.0216 11.7329 27.7271 11.7329H24.5272C24.2327 11.7329 23.9939 11.9717 23.9939 12.2662V15.4661C23.9939 15.7606 24.2327 15.9994 24.5272 15.9994H27.7271C28.0216 15.9994 28.2604 15.7606 28.2604 15.4661V12.2662ZM27.1938 14.9328H25.0606V12.7995H27.1938V14.9328Z" fill="white"/>
<path d="M22.394 18.1324C22.394 17.8379 22.1552 17.5991 21.8607 17.5991H18.6608C18.3663 17.5991 18.1275 17.8379 18.1275 18.1324V21.3323C18.1275 21.6268 18.3663 21.8656 18.6608 21.8656H21.8607C22.1552 21.8656 22.394 21.6268 22.394 21.3323V18.1324ZM21.3274 20.799H19.1941V18.6657H21.3274V20.799Z" fill="white"/>
<path d="M21.8607 23.4656H18.6608C18.3663 23.4656 18.1275 23.7044 18.1275 23.9989V27.1988C18.1275 27.4933 18.3663 27.7321 18.6608 27.7321H21.8607C22.1552 27.7321 22.394 27.4933 22.394 27.1988V23.9989C22.394 23.7044 22.1552 23.4656 21.8607 23.4656ZM21.3274 26.6654H19.1941V24.5322H21.3274V26.6654Z" fill="white"/>
<path d="M27.7271 17.5991H24.5272C24.2327 17.5991 23.9939 17.8379 23.9939 18.1324V27.1987C23.9939 27.4932 24.2327 27.732 24.5272 27.732H27.7271C28.0216 27.732 28.2604 27.4932 28.2604 27.1987V18.1324C28.2604 17.8379 28.0216 17.5991 27.7271 17.5991ZM27.1938 26.6654H25.0606V18.6657H27.1938V26.6654Z" fill="white"/>
<path d="M25.5939 7.46628C25.8884 7.46628 26.1272 7.22749 26.1272 6.93297C26.1272 6.63845 25.8884 6.39966 25.5939 6.39966H23.4606C23.1661 6.39966 22.9273 6.63845 22.9273 6.93297C22.9273 7.22749 23.1661 7.46628 23.4606 7.46628H25.5939Z" fill="white"/>
<path d="M21.3274 7.46628C21.6219 7.46628 21.8607 7.22749 21.8607 6.93297C21.8607 6.63845 21.6219 6.39966 21.3274 6.39966H19.1941C18.8996 6.39966 18.6608 6.63845 18.6608 6.93297C18.6608 7.22749 18.8996 7.46628 19.1941 7.46628H21.3274Z" fill="white"/>
<path d="M29.327 0H11.1945C9.72162 0 8.52792 1.19396 8.52792 2.66655V6.93303C8.52792 7.22755 8.76672 7.46634 9.06123 7.46634C9.35575 7.46634 9.59454 7.22755 9.59454 6.93303V2.66655C9.59454 1.783 10.3109 1.06662 11.1945 1.06662H29.327C30.2106 1.06662 30.927 1.783 30.927 2.66655V29.3321C30.927 30.2156 30.2106 30.932 29.327 30.932H14.9276C14.6331 30.932 14.3943 31.1708 14.3943 31.4653C14.3943 31.7598 14.6331 31.9986 14.9276 31.9986H29.327C30.7996 31.9986 31.9936 30.8047 31.9936 29.3321V2.66655C31.9936 1.19396 30.7996 0 29.327 0Z" fill="white"/>
<path d="M15.461 12.2662V15.4661C15.461 15.7606 15.6998 15.9994 15.9943 15.9994C16.2888 15.9994 16.5276 15.7606 16.5276 15.4661V12.2662C16.5276 11.9717 16.2888 11.7329 15.9943 11.7329C15.6998 11.7329 15.461 11.9717 15.461 12.2662Z" fill="white"/>
<path d="M8.52792 20.7991C9.11696 20.7991 9.59454 21.2767 9.59454 21.8657C9.59454 22.1603 9.83333 22.3991 10.1279 22.3991C10.4224 22.3991 10.6612 22.1603 10.6612 21.8657C10.6604 20.8937 10.0026 20.045 9.06123 19.8018V18.6659C9.06123 18.3714 8.82244 18.1326 8.52792 18.1326C8.2334 18.1326 7.99461 18.3714 7.99461 18.6659V19.8018C6.95742 20.0729 6.28271 21.0712 6.41786 22.1347C6.55275 23.198 7.4561 23.9959 8.52792 23.999C9.11696 23.999 9.59454 24.4766 9.59454 25.0656C9.59454 25.6547 9.11696 26.1322 8.52792 26.1322C7.93889 26.1322 7.4613 25.6547 7.4613 25.0656C7.4613 24.7711 7.22251 24.5323 6.92799 24.5323C6.63348 24.5323 6.39468 24.7711 6.39468 25.0656C6.39547 26.0377 7.05325 26.8864 7.99461 27.1296V28.2655C7.99461 28.56 8.2334 28.7988 8.52792 28.7988C8.82244 28.7988 9.06123 28.56 9.06123 28.2655V27.1296C10.0982 26.8585 10.7731 25.8601 10.638 24.7966C10.5028 23.7334 9.59975 22.9355 8.52792 22.9324C7.93889 22.9324 7.4613 22.4548 7.4613 21.8657C7.4613 21.2767 7.93889 20.7991 8.52792 20.7991Z" fill="white"/>
<path d="M15.925 27.7321C16.0721 27.4758 15.9839 27.1488 15.7276 27.0014C15.4714 26.8542 15.1443 26.9425 14.9969 27.1988C13.4374 29.9075 10.3552 31.358 7.27382 30.8338C4.19244 30.3093 1.7639 27.9209 1.18788 24.8486C0.612128 21.7763 2.01102 18.6705 4.69346 17.0659H12.3624C14.6131 18.4129 15.9919 20.8425 15.9943 23.4656C15.9943 23.7601 16.2331 23.9989 16.5276 23.9989C16.8221 23.9989 17.0609 23.7601 17.0609 23.4656C17.0588 20.8339 15.8427 18.3505 13.7649 16.7352C14.2378 16.3714 14.4691 15.7748 14.3649 15.1876C14.2605 14.6001 13.8381 14.1194 13.2691 13.9407C13.6519 13.4665 13.8608 12.8754 13.861 12.2661V10.6662C13.8597 9.77947 13.3103 8.98602 12.4806 8.67327C11.651 8.36026 10.7143 8.59333 10.1279 9.25814C9.72293 8.79905 9.14014 8.53604 8.52793 8.53604C7.91572 8.53604 7.33293 8.79905 6.928 9.25814C6.34157 8.59333 5.40489 8.36026 4.57524 8.67327C3.74558 8.98602 3.19613 9.77947 3.19483 10.6662V12.2661C3.19509 12.8754 3.40393 13.4665 3.78673 13.9407C3.21774 14.1194 2.79511 14.6001 2.69094 15.1876C2.58678 15.7748 2.81802 16.3714 3.29092 16.7352C0.573848 18.8515 -0.604486 22.3938 0.303026 25.7158C1.2108 29.038 4.02656 31.4889 7.44204 31.9298C10.8578 32.3707 14.2035 30.715 15.925 27.7321ZM4.26145 10.6662C4.26145 10.0771 4.73903 9.59953 5.32807 9.59953C5.91711 9.59953 6.39469 10.0771 6.39469 10.6662C6.39469 10.9607 6.63348 11.1995 6.928 11.1995C7.22252 11.1995 7.46131 10.9607 7.46131 10.6662C7.46131 10.0771 7.93889 9.59953 8.52793 9.59953C9.11697 9.59953 9.59455 10.0771 9.59455 10.6662C9.59455 10.9607 9.83334 11.1995 10.1279 11.1995C10.4224 11.1995 10.6612 10.9607 10.6612 10.6662C10.6612 10.0771 11.1388 9.59953 11.7278 9.59953C12.3168 9.59953 12.7944 10.0771 12.7944 10.6662V12.2661C12.7944 13.1496 12.078 13.866 11.1945 13.866H5.86138C4.97782 13.866 4.26145 13.1496 4.26145 12.2661V10.6662ZM4.26145 14.9326H12.7944C13.0889 14.9326 13.3277 15.1714 13.3277 15.4659C13.3277 15.7605 13.0889 15.9993 12.7944 15.9993H4.26145C3.96693 15.9993 3.72814 15.7605 3.72814 15.4659C3.72814 15.1714 3.96693 14.9326 4.26145 14.9326Z" fill="white"/>
</g>
<defs>
<clipPath id="clip0">
<rect width="32" height="32" fill="white"/>
</clipPath>
</defs>
</svg>
