<?xml version="1.0" encoding="utf-8"?>
<!-- Generator: Adobe Illustrator 14.0.0, SVG Export Plug-In . SVG Version: 6.00 Build 43363)  -->
<!DOCTYPE svg PUBLIC "-//W3C//DTD SVG 1.1//EN" "http://www.w3.org/Graphics/SVG/1.1/DTD/svg11.dtd">
<svg version="1.1" id="Layer_1" xmlns="http://www.w3.org/2000/svg" xmlns:xlink="http://www.w3.org/1999/xlink" x="0px" y="0px"
	 width="512px" height="484.174px" viewBox="0 0 512 484.174" enable-background="new 0 0 512 484.174" xml:space="preserve">
<g>
	<defs>
		<rect id="SVGID_1_" width="511.999" height="484.174"/>
	</defs>
	<clipPath id="SVGID_2_">
		<use xlink:href="#SVGID_1_"  overflow="visible"/>
	</clipPath>
	<path clip-path="url(#SVGID_2_)" d="M473.043,150.261h-26.541c-0.204-0.226-0.393-0.459-0.611-0.675L301.198,4.89
		c-6.521-6.52-17.092-6.52-23.611,0c-6.521,6.52-6.521,17.091,0,23.611L399.344,150.26H112.653L234.415,28.501
		c6.52-6.52,6.52-17.091,0-23.611c-6.519-6.52-17.091-6.52-23.611,0L66.107,149.586c-0.217,0.217-0.407,0.45-0.61,0.675h-26.54
		C17.477,150.261,0,167.737,0,189.217v22.261c0,20.461,15.855,37.287,35.923,38.839l32,192.004
		c4.043,24.251,24.821,41.853,49.407,41.853h282.229c24.767,0,46.081-18.488,49.584-43.004l27.27-190.88
		c19.91-1.714,35.587-18.467,35.587-38.812v-22.261C512,167.737,494.524,150.261,473.043,150.261 M478.61,211.478
		c0,3.069-2.497,5.565-5.565,5.565H306.088c-9.22,0-16.697,7.475-16.697,16.696c0,9.22,7.477,16.696,16.697,16.696h136.576
		l-26.575,186.015c-1.168,8.172-8.271,14.334-16.529,14.334H117.331c-8.196,0-15.121-5.867-16.47-13.951L69.796,250.435h136.117
		c9.219,0,16.696-7.475,16.696-16.696c0-9.22-7.476-16.696-16.696-16.696H38.958c-3.069,0-5.565-2.497-5.565-5.565v-22.261
		c0-3.069,2.497-5.565,5.565-5.565h434.087c3.069,0,5.565,2.497,5.565,5.565V211.478z"/>
	<path clip-path="url(#SVGID_2_)" d="M155.826,283.825c-9.22,0-16.696,7.477-16.696,16.696v100.174
		c0,9.221,7.475,16.696,16.696,16.696s16.696-7.475,16.696-16.696V300.521C172.522,291.302,165.047,283.825,155.826,283.825"/>
	<path clip-path="url(#SVGID_2_)" d="M256,283.825c-9.22,0-16.696,7.477-16.696,16.696v100.174c0,9.221,7.475,16.696,16.696,16.696
		c9.22,0,16.696-7.475,16.696-16.696V300.521C272.696,291.302,265.22,283.825,256,283.825"/>
	<path clip-path="url(#SVGID_2_)" d="M356.173,283.825c-9.22,0-16.694,7.477-16.694,16.696v100.174
		c0,9.221,7.474,16.696,16.694,16.696s16.696-7.475,16.696-16.696V300.521C372.87,291.302,365.394,283.825,356.173,283.825"/>
</g>
</svg>
