<!DOCTYPE svg PUBLIC "-//W3C//DTD SVG 20010904//EN" "http://www.w3.org/TR/2001/REC-SVG-20010904/DTD/svg10.dtd">
<svg version="1.0" xmlns="http://www.w3.org/2000/svg" width="226px" height="160px" viewBox="0 0 2260 1600" preserveAspectRatio="xMidYMid meet">
<g id="layer101" fill="#50a744" stroke="none">
 <path d="M840 1587 c-25 -7 -56 -20 -68 -29 -61 -42 -725 -705 -744 -742 -59 -112 2 -256 132 -315 58 -27 150 -27 206 -2 27 12 130 106 295 268 l254 250 471 -487 c286 -295 486 -493 507 -503 84 -40 170 -31 253 26 97 67 136 198 87 292 -31 59 -1132 1194 -1185 1222 -53 28 -147 37 -208 20z"/>
 </g>

</svg>