<!DOCTYPE svg PUBLIC "-//W3C//DTD SVG 20010904//EN" "http://www.w3.org/TR/2001/REC-SVG-20010904/DTD/svg10.dtd">
<svg version="1.0" xmlns="http://www.w3.org/2000/svg" width="160px" height="96px" viewBox="0 0 1600 960" preserveAspectRatio="xMidYMid meet">
<g id="layer101" fill="#c7c7c7" stroke="none">
 <path d="M721 923 c-21 -21 -164 -171 -317 -333 -153 -162 -306 -325 -341 -362 -59 -62 -63 -69 -63 -113 0 -40 5 -52 34 -81 34 -34 78 -44 120 -28 8 3 158 156 332 340 174 184 319 334 323 334 4 0 146 -150 315 -334 168 -184 314 -337 322 -340 48 -18 115 7 139 54 28 53 20 95 -27 147 -172 190 -636 694 -664 721 -29 27 -41 32 -84 32 -45 0 -55 -4 -89 -37z"/>
 </g>

</svg>