<!DOCTYPE svg PUBLIC "-//W3C//DTD SVG 20010904//EN" "http://www.w3.org/TR/2001/REC-SVG-20010904/DTD/svg10.dtd">
<svg version="1.0" xmlns="http://www.w3.org/2000/svg" width="91px" height="135px" viewBox="0 0 910 1350" preserveAspectRatio="xMidYMid meet">
<g id="layer101" fill="#474c58" stroke="none">
 <path d="M663 1268 c-414 -349 -645 -552 -654 -576 -22 -56 -3 -75 380 -391 l364 -301 49 0 c41 0 54 5 79 29 30 30 37 67 19 100 -5 10 -149 134 -320 275 -170 142 -310 259 -310 261 0 2 134 117 298 257 163 139 307 263 320 275 40 40 26 110 -28 138 -62 32 -91 22 -197 -67z"/>
 </g>

</svg>