<!DOCTYPE svg PUBLIC "-//W3C//DTD SVG 20010904//EN" "http://www.w3.org/TR/2001/REC-SVG-20010904/DTD/svg10.dtd">
<svg version="1.0" xmlns="http://www.w3.org/2000/svg" width="91px" height="135px" viewBox="0 0 910 1350" preserveAspectRatio="xMidYMid meet">
<g id="layer101" fill="#474c58" stroke="none">
 <path d="M48 1334 c-52 -28 -65 -98 -25 -137 12 -12 156 -136 320 -275 163 -140 297 -255 297 -257 0 -2 -140 -119 -310 -261 -171 -141 -315 -265 -320 -275 -18 -33 -11 -70 19 -100 25 -24 38 -29 79 -29 l49 0 364 301 c383 316 402 335 380 391 -6 16 -120 121 -283 260 -489 418 -464 398 -506 398 -20 -1 -49 -7 -64 -16z"/>
 </g>

</svg>