<svg width="24" height="24" viewBox="0 0 24 24" fill="none" xmlns="http://www.w3.org/2000/svg">
<path d="M22.0511 5.92048L15.916 0.255403C15.7842 0.135045 15.6119 0 15.4328 0H9.11507C7.17823 0 5.84319 1.00657 5.84319 2.4634V4.29851H4.64032C2.86862 4.29851 1.54468 5.41755 1.54468 6.93815V21.2669C1.54468 22.8759 3.0051 24 4.64032 24H15.1111C16.7865 24 18.0223 22.8222 18.0223 21.2669V19.7015H19.5859C21.1656 19.7015 22.3208 18.4431 22.3208 16.7921V6.64657C22.3208 6.63618 22.4075 6.62615 22.4071 6.61612C22.4075 6.60537 22.4551 6.59499 22.4551 6.58424C22.4555 6.28334 22.314 6.02651 22.0511 5.92048ZM15.873 2.38746L19.8671 5.73134H15.873V2.38746ZM16.5895 21.2669C16.5895 22.1133 15.8952 22.5672 15.1111 22.5672H4.64068C3.80856 22.5672 2.97787 22.0725 2.97787 21.2669V6.93815C2.97787 6.00681 4.08653 5.73134 4.64068 5.73134H10.1421V11.241C10.1421 11.6364 10.6421 11.8209 11.0376 11.8209H16.5898V21.2669H16.5895ZM15.7713 10.3881H11.5745V6.84967L15.7713 10.3881ZM19.5859 18.2687H18.0223V11.1213C18.0223 10.92 18.0273 10.7284 17.879 10.5926L11.6354 4.84012C11.5194 4.60119 11.2987 4.43463 11.015 4.43463C11.0021 4.43463 11.001 4.36943 10.9881 4.37015C10.9745 4.36943 10.9724 4.29815 10.9584 4.29815H7.27602V2.46304C7.27602 1.72406 8.35781 1.43248 9.11507 1.43248H14.4402V6.58388C14.4402 6.97934 14.9403 7.16382 15.3357 7.16382H20.888V16.7918C20.888 17.6511 20.3754 18.2687 19.5859 18.2687Z" fill="black"/>
</svg>
