<?xml version="1.0" encoding="utf-8"?>
<!-- Generator: Adobe Illustrator 14.0.0, SVG Export Plug-In . SVG Version: 6.00 Build 43363)  -->
<!DOCTYPE svg PUBLIC "-//W3C//DTD SVG 1.1//EN" "http://www.w3.org/Graphics/SVG/1.1/DTD/svg11.dtd">
<svg version="1.1" id="Layer_1" xmlns="http://www.w3.org/2000/svg" xmlns:xlink="http://www.w3.org/1999/xlink" x="0px" y="0px"
	 width="458.009px" height="512.003px" viewBox="0 0 458.009 512.003" enable-background="new 0 0 458.009 512.003"
	 xml:space="preserve">
<g>
	<defs>
		<rect id="SVGID_1_" y="0" width="458.009" height="512.003"/>
	</defs>
	<clipPath id="SVGID_2_">
		<use xlink:href="#SVGID_1_"  overflow="visible"/>
	</clipPath>
	<path clip-path="url(#SVGID_2_)" d="M275.784,239.712c-4.434-4.429-11.619-4.429-16.049,0.001l-21.308,21.306
		c-2.937-1.089-6.108-1.687-9.421-1.687c-3.314,0-6.49,0.599-9.429,1.69l-43.793-43.794c-4.431-4.429-11.616-4.429-16.046,0
		c-4.431,4.431-4.432,11.616,0,16.048l43.797,43.798c-1.089,2.935-1.686,6.107-1.686,9.418c0,14.975,12.183,27.158,27.159,27.158
		c14.977,0,27.159-12.183,27.159-27.158c0-3.313-0.598-6.487-1.688-9.427l21.306-21.306
		C280.214,251.329,280.214,244.145,275.784,239.712 M229.006,293.225c-3.714,0-6.735-3.021-6.735-6.734
		c0-3.714,3.022-6.735,6.735-6.735s6.735,3.021,6.735,6.735C235.74,290.205,232.718,293.225,229.006,293.225"/>
	<path clip-path="url(#SVGID_2_)" d="M362.962,114.459l12.856-18.36l51.542,36.09c1.919,1.346,4.195,2.053,6.507,2.053
		c0.656,0,1.315-0.057,1.97-0.172c2.964-0.522,5.599-2.2,7.324-4.666c26.013-37.151,16.952-88.54-20.198-114.555
		c-37.15-26.017-88.542-16.953-114.553,20.198c-3.594,5.133-2.346,12.208,2.786,15.802l46.034,32.234l-12.859,18.365
		C310.883,80.495,271.337,68.36,229.006,68.36c-42.332,0-81.877,12.134-115.366,33.088l-12.86-18.365l46.034-32.234
		c5.133-3.595,6.381-10.669,2.787-15.802C123.588-2.104,72.199-11.166,35.047,14.849c-37.151,26.013-46.213,77.402-20.2,114.554
		c1.726,2.466,4.361,4.144,7.324,4.666c0.655,0.117,1.314,0.172,1.97,0.172c2.312,0,4.589-0.708,6.508-2.053l51.541-36.09
		l12.856,18.36c-51.192,39.955-84.172,102.212-84.172,172.034c0,75.929,39.004,142.91,98.02,181.989l-17.97,25.664
		c-3.595,5.133-2.346,12.208,2.786,15.803c1.981,1.388,4.25,2.054,6.498,2.054c3.576,0,7.097-1.688,9.304-4.84l18.986-27.115
		c30.097,15.691,64.281,24.579,100.506,24.579c36.221,0,70.402-8.886,100.496-24.573l18.982,27.11
		c2.207,3.151,5.728,4.841,9.304,4.841c2.247,0,4.518-0.666,6.498-2.054c5.133-3.596,6.38-10.669,2.786-15.803l-17.965-25.656
		c59.021-39.079,98.028-106.063,98.028-181.996C447.136,216.669,414.158,154.413,362.962,114.459 M334.396,39.392
		c20.089-19.425,51.829-22.564,75.553-5.955c23.724,16.613,31.629,47.514,20.246,73.033L334.396,39.392z M27.818,106.47
		c-11.384-25.519-3.479-56.421,20.246-73.033c10.375-7.264,22.28-10.751,34.077-10.751c15.177,0,30.173,5.775,41.475,16.706
		L27.818,106.47z M229.006,481.93c-107.766,0-195.439-87.673-195.439-195.438c0-107.766,87.673-195.438,195.439-195.438
		s195.439,87.673,195.439,195.438C424.445,394.256,336.771,481.93,229.006,481.93"/>
	<path clip-path="url(#SVGID_2_)" d="M229.005,126.071c-88.456,0-160.421,71.965-160.421,160.42
		c0,88.456,71.965,160.421,160.421,160.421s160.42-71.965,160.42-160.421C389.425,198.036,317.461,126.071,229.005,126.071
		 M335.645,377.084l-7.667-7.666c-4.431-4.431-11.614-4.431-16.046,0c-4.431,4.432-4.431,11.615,0,16.046l7.666,7.667
		c-21.729,18.489-49.159,30.471-79.246,32.895v-10.912c0-6.265-5.08-11.346-11.347-11.346c-6.267,0-11.347,5.081-11.347,11.346
		v10.912c-30.088-2.424-57.514-14.405-79.246-32.895l7.667-7.667c4.43-4.432,4.43-11.615,0-16.046
		c-4.432-4.431-11.617-4.431-16.049,0l-7.667,7.667c-18.489-21.73-30.469-49.159-32.895-79.247h10.912
		c6.267,0,11.348-5.08,11.348-11.348c0-6.266-5.081-11.346-11.348-11.346H89.468c2.426-30.088,14.406-57.515,32.895-79.247
		l7.667,7.666c2.217,2.216,5.12,3.324,8.023,3.324c2.904,0,5.808-1.109,8.024-3.324c4.43-4.43,4.43-11.615,0-16.047l-7.667-7.667
		c21.731-18.489,49.158-30.47,79.246-32.895v10.913c0,6.266,5.08,11.347,11.347,11.347c6.267,0,11.347-5.081,11.347-11.347v-10.913
		c30.088,2.425,57.517,14.406,79.246,32.895l-7.666,7.667c-4.431,4.431-4.431,11.616,0,16.047c2.216,2.216,5.12,3.324,8.024,3.324
		c2.902,0,5.807-1.109,8.021-3.324l7.667-7.666c18.489,21.732,30.471,49.159,32.896,79.247h-10.913
		c-6.266,0-11.346,5.08-11.346,11.346c0,6.268,5.082,11.348,11.347,11.348h10.913C366.117,327.926,354.134,355.354,335.645,377.084"
		/>
</g>
</svg>
