<svg width="22" height="22" viewBox="0 0 22 22" fill="none" xmlns="http://www.w3.org/2000/svg">
<path fill-rule="evenodd" clip-rule="evenodd" d="M5.50001 16.5C2.46244 13.4624 2.46244 8.53756 5.50001 5.49999C8.53757 2.46243 13.4624 2.46243 16.5 5.49999C19.5376 8.53756 19.5376 13.4624 16.5 16.5C13.4624 19.5375 8.53757 19.5375 5.50001 16.5ZM6.50001 15.5C8.98528 17.9853 13.0147 17.9853 15.5 15.5C17.9853 13.0147 17.9853 8.98527 15.5 6.49999C13.0147 4.01471 8.98528 4.01471 6.50001 6.49999C4.01473 8.98527 4.01473 13.0147 6.50001 15.5ZM14 13L12 11L14 8.99999L13 7.99999L11 9.99999L9 7.99999L8 8.99999L10 11L8 13L9 14L11 12L13 14L14 13Z" fill="#000"/>
</svg>
