<!DOCTYPE svg PUBLIC "-//W3C//DTD SVG 20010904//EN" "http://www.w3.org/TR/2001/REC-SVG-20010904/DTD/svg10.dtd">
<svg version="1.0" xmlns="http://www.w3.org/2000/svg" width="402px" height="512px" viewBox="0 0 4020 5120" preserveAspectRatio="xMidYMid meet">
<g id="layer101" fill="#000000" stroke="none">
 <path d="M0 2560 l0 -2560 1388 0 1387 0 623 623 622 622 0 1938 0 1937 -2010 0 -2010 0 0 -2560z m995 1335 c64 -63 -16 -169 -91 -121 -50 33 -51 96 -2 130 32 23 65 20 93 -9z m1280 0 c33 -32 33 -78 0 -110 l-24 -25 -445 0 c-309 0 -453 3 -470 11 -35 16 -52 61 -37 98 7 16 22 33 34 39 14 7 178 11 470 11 l448 1 24 -25z m1021 2 c20 -17 27 -33 27 -57 0 -24 -7 -40 -27 -57 l-27 -23 -314 0 c-212 0 -322 4 -339 11 -35 16 -52 61 -37 98 7 16 22 33 34 39 14 7 139 11 339 11 l317 1 27 -23z m-849 -599 c24 -23 30 -66 13 -98 -21 -39 -50 -40 -797 -40 -793 0 -774 -1 -790 58 -9 36 -5 53 20 80 l20 22 756 0 755 0 23 -22z m428 -3 c29 -28 32 -61 9 -93 -34 -49 -97 -48 -130 2 -48 75 58 155 121 91z m417 11 c48 -36 41 -108 -14 -130 -81 -34 -145 58 -83 119 27 27 70 32 97 11z m-1018 -605 c35 -33 35 -79 0 -112 l-26 -24 -421 -3 c-232 -2 -437 0 -456 3 -41 8 -81 46 -81 78 0 31 34 74 63 80 12 3 219 4 459 3 l436 -1 26 -24z m1000 15 c73 -31 66 -124 -12 -145 -60 -17 -595 -14 -637 3 -35 15 -55 42 -55 74 0 27 36 70 63 75 12 2 154 5 315 6 228 1 300 -2 326 -13z m-2277 -18 c46 -43 14 -128 -48 -128 -42 0 -60 10 -74 44 -33 78 60 143 122 84z m429 -601 c31 -36 30 -67 -1 -101 l-24 -26 -244 0 -244 0 -23 25 c-39 41 -26 104 25 126 11 4 125 7 253 6 l234 -2 24 -28z m399 23 c28 -11 56 -64 47 -89 -20 -60 -85 -79 -127 -36 -40 39 -31 96 20 123 25 14 28 14 60 2z m1049 -19 c34 -32 34 -74 1 -106 l-24 -25 -329 0 -329 0 -23 25 c-39 41 -26 105 25 126 11 4 163 7 337 6 l316 -2 26 -24z m424 6 c36 -30 33 -94 -6 -123 -45 -35 -122 5 -122 63 1 66 78 102 128 60z m-1532 -690 c30 -36 30 -68 0 -104 l-24 -28 -386 -3 c-431 -3 -459 0 -481 50 -9 23 -10 39 -3 61 20 55 33 57 471 54 l399 -2 24 -28z m2064 -60 c0 -1 -265 -268 -590 -592 l-590 -590 0 593 0 592 590 0 c325 0 590 -1 590 -3z"/>
 </g>

</svg>