<svg width="24" height="24" viewBox="0 0 24 24" fill="none" xmlns="http://www.w3.org/2000/svg">
<path d="M22.586 12.5396L12.5395 22.5861C12.4093 22.7163 12.2046 22.8093 12 22.8093C11.7953 22.8093 11.5907 22.7163 11.4604 22.5861L1.41393 12.5396C1.11626 12.2419 1.11626 11.7582 1.41393 11.4605C1.56277 11.3117 1.74881 11.2372 1.95346 11.2372C2.15812 11.2372 2.34416 11.3117 2.493 11.4605L11.2372 20.2047V1.95351C11.2372 1.52561 11.5721 1.19072 12 1.19072C12.4279 1.19072 12.7628 1.52561 12.7628 1.95351V20.2047L21.507 11.4605C21.8046 11.1628 22.2883 11.1628 22.586 11.4605C22.8837 11.7582 22.8651 12.2419 22.586 12.5396Z" fill="#009900"/>
</svg>
