<!DOCTYPE svg PUBLIC "-//W3C//DTD SVG 20010904//EN" "http://www.w3.org/TR/2001/REC-SVG-20010904/DTD/svg10.dtd">
<svg version="1.0" xmlns="http://www.w3.org/2000/svg" width="512px" height="512px" viewBox="0 0 5120 5120" preserveAspectRatio="xMidYMid meet">
<g id="layer101" fill="#000000" stroke="none">
 <path d="M2 3153 l3 -1967 1234 -593 c679 -326 1241 -593 1250 -593 9 0 603 267 1321 593 l1305 593 3 1967 2 1967 -465 0 -465 0 0 -1595 0 -1595 -1630 0 -1630 0 0 1595 0 1595 -465 0 -465 0 2 -1967z"/>
 <path d="M1190 4745 l0 -255 295 0 295 0 0 255 0 255 -295 0 -295 0 0 -255z"/>
 <path d="M1900 4745 l0 -255 295 0 295 0 0 255 0 255 -295 0 -295 0 0 -255z"/>
 <path d="M2610 4745 l0 -255 295 0 295 0 0 255 0 255 -295 0 -295 0 0 -255z"/>
 <path d="M3330 4745 l0 -255 295 0 295 0 0 255 0 255 -295 0 -295 0 0 -255z"/>
 <path d="M1190 4065 l0 -255 295 0 295 0 0 255 0 255 -295 0 -295 0 0 -255z"/>
 <path d="M1900 4065 l0 -255 295 0 295 0 0 255 0 255 -295 0 -295 0 0 -255z"/>
 <path d="M2610 4065 l0 -255 295 0 295 0 0 255 0 255 -295 0 -295 0 0 -255z"/>
 <path d="M1190 3375 l0 -255 295 0 295 0 0 255 0 255 -295 0 -295 0 0 -255z"/>
 <path d="M1900 3375 l0 -255 295 0 295 0 0 255 0 255 -295 0 -295 0 0 -255z"/>
 </g>

</svg>