<!DOCTYPE svg PUBLIC "-//W3C//DTD SVG 20010904//EN" "http://www.w3.org/TR/2001/REC-SVG-20010904/DTD/svg10.dtd">
<svg version="1.0" xmlns="http://www.w3.org/2000/svg" width="420px" height="512px" viewBox="0 0 4200 5120" preserveAspectRatio="xMidYMid meet">
<g id="layer101" fill="#000000" stroke="none">
 <path d="M779 5106 c-122 -43 -179 -136 -187 -303 l-5 -102 1404 -3 1404 -3 58 -21 c159 -59 271 -191 297 -351 6 -35 10 -782 10 -1907 l0 -1849 109 6 c136 7 193 29 256 99 81 91 75 -94 75 2178 0 1769 -2 2033 -15 2077 -19 65 -85 139 -150 169 l-50 24 -1585 -1 c-1269 0 -1592 -2 -1621 -13z"/>
 <path d="M239 4540 c-66 -11 -121 -43 -168 -96 -76 -87 -71 28 -71 -1650 l0 -1503 498 -3 497 -3 68 -32 c80 -38 150 -106 189 -184 44 -87 51 -172 47 -645 l-4 -424 1060 2 1060 3 46 27 c56 33 94 76 123 138 l21 45 0 2055 0 2055 -21 46 c-31 66 -78 114 -142 146 l-57 28 -1550 1 c-852 1 -1571 -2 -1596 -6z m1689 -990 c32 -20 62 -71 62 -106 0 -31 -34 -87 -64 -105 -29 -18 -60 -19 -559 -19 -595 0 -569 -3 -607 76 -30 61 -14 112 50 157 22 16 70 17 555 17 514 0 531 -1 563 -20z m987 -680 c43 -26 69 -81 60 -126 -8 -47 -63 -99 -111 -107 -51 -9 -1957 -9 -2008 0 -47 7 -100 58 -110 104 -4 23 0 45 14 75 39 79 -40 74 1104 74 1004 0 1019 0 1051 -20z m-21 -714 c41 -17 74 -58 82 -102 8 -42 -18 -89 -66 -121 l-33 -23 -1016 0 c-989 0 -1017 1 -1048 20 -92 56 -87 176 9 223 30 15 133 17 1036 17 830 0 1008 -2 1036 -14z"/>
 <path d="M62 1120 c-42 -26 -66 -80 -57 -129 5 -31 73 -102 478 -508 411 -411 477 -472 509 -478 49 -9 103 10 128 45 19 27 20 43 20 469 0 348 -3 448 -13 474 -22 52 -68 98 -122 123 l-50 24 -430 0 c-414 0 -431 -1 -463 -20z"/>
 </g>

</svg>