<svg width="9" height="10" viewBox="0 0 9 10" fill="none" xmlns="http://www.w3.org/2000/svg">
<path d="M0.751953 10V0.046875H4.32715C5.60775 0.046875 6.58073 0.281576 7.24609 0.750977C7.91602 1.22038 8.25098 1.90169 8.25098 2.79492C8.25098 3.3099 8.13249 3.74967 7.89551 4.11426C7.65853 4.47884 7.3099 4.74772 6.84961 4.9209C7.36914 5.05762 7.7679 5.31283 8.0459 5.68652C8.32389 6.06022 8.46289 6.51595 8.46289 7.05371C8.46289 8.02897 8.15299 8.7627 7.5332 9.25488C6.91797 9.74251 6.00423 9.99089 4.79199 10H0.751953ZM3.15137 5.76855V8.1543H4.72363C5.15658 8.1543 5.48926 8.05632 5.72168 7.86035C5.9541 7.65983 6.07031 7.37956 6.07031 7.01953C6.07031 6.1901 5.65788 5.77311 4.83301 5.76855H3.15137ZM3.15137 4.19629H4.40234C4.92643 4.19173 5.30013 4.09603 5.52344 3.90918C5.74674 3.72233 5.8584 3.44661 5.8584 3.08203C5.8584 2.66276 5.73763 2.36198 5.49609 2.17969C5.25456 1.99284 4.86491 1.89941 4.32715 1.89941H3.15137V4.19629Z" fill="black"/>
</svg>
