<?xml version="1.0" encoding="utf-8"?>
<!-- Generator: Adobe Illustrator 14.0.0, SVG Export Plug-In . SVG Version: 6.00 Build 43363)  -->
<!DOCTYPE svg PUBLIC "-//W3C//DTD SVG 1.1//EN" "http://www.w3.org/Graphics/SVG/1.1/DTD/svg11.dtd">
<svg version="1.1" id="Layer_1" xmlns="http://www.w3.org/2000/svg" xmlns:xlink="http://www.w3.org/1999/xlink" x="0px" y="0px"
	 width="25.745px" height="22.927px" viewBox="0 0 25.745 22.927" enable-background="new 0 0 25.745 22.927" xml:space="preserve">
<g>
	<path d="M22.909,22.928c-0.001,0-0.001,0-0.002,0h-4.394c-0.749,0-1.242-0.373-1.678-0.701c-0.028-0.021-0.057-0.043-0.086-0.064
		l-0.351,0.088c-0.261,0.067-0.541,0.103-0.828,0.103H6.075C3.94,22.35,2.535,21.185,2.35,19.292
		c-1.25-0.925-1.71-2.012-1.511-3.564c-0.794-1.03-1.139-2.053-0.515-3.725C0,10.818,0.154,9.718,0.764,8.89
		c0.625-0.847,1.673-1.314,2.953-1.315h4.532C7.972,5.55,7.881,3.502,8.981,1.969C9.876,0.718,11.089,0,12.308,0
		c0.73,0,1.39,0.263,1.857,0.74c0.443,0.453,0.68,1.078,0.666,1.759c0.037,2.427,0.166,2.773,1.155,4.359l1.06,1.343l0.156-0.121
		c0.392-0.3,0.876-0.465,1.367-0.465h4.337c1.561,0.005,2.833,1.286,2.839,2.857v9.595C25.74,21.639,24.467,22.922,22.909,22.928
		L22.909,22.928z M16.856,21.121c0.103,0,0.203,0.031,0.289,0.092c0.101,0.071,0.197,0.145,0.293,0.217
		c0.384,0.29,0.661,0.499,1.075,0.499h4.392c1.028-0.004,1.837-0.822,1.841-1.863v-9.591c-0.004-1.039-0.813-1.856-1.841-1.859
		H18.57c-0.271,0-0.541,0.091-0.757,0.257l-0.547,0.422c-0.216,0.165-0.528,0.129-0.698-0.087L15.17,7.431
		c-1.153-1.84-1.3-2.389-1.339-4.935c0.009-0.434-0.123-0.793-0.381-1.057C13.173,1.156,12.768,1,12.308,1
		c-0.893,0-1.809,0.565-2.514,1.551c-0.89,1.24-0.841,3.005-0.474,5.45c0.021,0.144-0.021,0.29-0.116,0.4
		c-0.095,0.11-0.233,0.174-0.379,0.174H3.716c-0.967,0-1.71,0.314-2.147,0.908c-0.446,0.605-0.531,1.456-0.24,2.395
		c0.034,0.11,0.029,0.227-0.013,0.333c-0.577,1.44-0.319,2.134,0.436,3.059c0.091,0.111,0.129,0.256,0.106,0.397
		c-0.224,1.367,0.117,2.165,1.256,2.941c0.131,0.089,0.211,0.235,0.218,0.394c0.061,1.514,1.035,2.349,2.744,2.351h9.495
		c0.202,0,0.397-0.024,0.581-0.072l0.583-0.146C16.775,21.125,16.816,21.121,16.856,21.121L16.856,21.121z"/>
</g>
</svg>
