<svg width="32" height="32" viewBox="0 0 32 32" fill="none" xmlns="http://www.w3.org/2000/svg">
<path fill-rule="evenodd" clip-rule="evenodd" d="M20 12H2V30H20V12ZM0 10V32H22V10H0Z" fill="white"/>
<path fill-rule="evenodd" clip-rule="evenodd" d="M21 20C25.9706 20 30 15.9706 30 11C30 6.02944 25.9706 2 21 2C16.0294 2 12 6.02944 12 11C12 15.9706 16.0294 20 21 20ZM21 22C27.0751 22 32 17.0751 32 11C32 4.92487 27.0751 0 21 0C14.9249 0 10 4.92487 10 11C10 17.0751 14.9249 22 21 22Z" fill="white"/>
</svg>
