<?xml version="1.0" encoding="utf-8"?>
<!-- Generator: Adobe Illustrator 14.0.0, SVG Export Plug-In . SVG Version: 6.00 Build 43363)  -->
<!DOCTYPE svg PUBLIC "-//W3C//DTD SVG 1.1//EN" "http://www.w3.org/Graphics/SVG/1.1/DTD/svg11.dtd">
<svg version="1.1" id="Layer_1" xmlns="http://www.w3.org/2000/svg" xmlns:xlink="http://www.w3.org/1999/xlink" x="0px" y="0px"
	 width="512px" height="512px" viewBox="0 0 512 512" enable-background="new 0 0 512 512" xml:space="preserve">
<g>
	<defs>
		<rect id="SVGID_1_" width="511.999" height="512"/>
	</defs>
	<clipPath id="SVGID_2_">
		<use xlink:href="#SVGID_1_"  overflow="visible"/>
	</clipPath>
	<path clip-path="url(#SVGID_2_)" d="M262.786,317.207c-1.913-4.031-6.736-5.752-10.77-3.837
		c-6.562,3.113-13.442,5.688-20.448,7.648c-2.931,0.82-5.152,3.214-5.748,6.2l-8.552,42.758c-0.844,4.221-4.582,7.287-8.888,7.287
		h-23.329c-4.306,0-8.043-3.065-8.888-7.287l-8.552-42.758c-0.597-2.986-2.819-5.38-5.748-6.2
		c-9.898-2.771-19.45-6.729-28.391-11.764c-2.653-1.494-5.92-1.371-8.452,0.315l-36.286,24.191
		c-3.582,2.387-8.392,1.911-11.438-1.134L60.8,316.132c-3.045-3.046-3.52-7.856-1.133-11.439l24.19-36.286
		c1.689-2.532,1.812-5.799,0.317-8.451c-5.037-8.942-8.995-18.496-11.764-28.392c-0.82-2.93-3.215-5.151-6.2-5.748l-42.758-8.551
		c-4.222-0.845-7.287-4.582-7.287-8.889v-23.328c0-4.306,3.064-8.044,7.287-8.888l42.758-8.553c2.985-0.596,5.38-2.818,6.2-5.748
		c2.77-9.898,6.728-19.449,11.764-28.39c1.494-2.653,1.371-5.919-0.317-8.452L59.669,88.733c-2.388-3.583-1.912-8.391,1.133-11.438
		L77.298,60.8c3.045-3.045,7.856-3.52,11.438-1.134l36.286,24.19c2.532,1.689,5.8,1.811,8.452,0.318
		c8.941-5.036,18.493-8.994,28.391-11.764c2.931-0.82,5.152-3.215,5.748-6.201l8.552-42.757c0.844-4.223,4.582-7.287,8.888-7.287
		h23.329c4.306,0,8.043,3.063,8.888,7.287l8.552,42.757c0.597,2.986,2.819,5.381,5.748,6.201c9.898,2.771,19.45,6.728,28.391,11.764
		c2.652,1.493,5.92,1.37,8.452-0.318l36.285-24.19c3.582-2.387,8.392-1.91,11.438,1.134l16.496,16.495
		c3.045,3.046,3.52,7.855,1.132,11.438l-24.189,36.287c-1.688,2.533-1.812,5.799-0.316,8.452
		c5.036,8.941,8.994,18.493,11.764,28.391c0.82,2.93,3.215,5.152,6.2,5.748l42.758,8.552c4.223,0.844,7.286,4.582,7.286,8.888
		v23.328c0,4.307-3.063,8.044-7.286,8.889l-42.758,8.552c-2.985,0.596-5.38,2.819-6.2,5.75c-2.009,7.179-4.66,14.222-7.881,20.933
		c-1.931,4.026-0.232,8.854,3.791,10.786c4.026,1.934,8.856,0.233,10.786-3.791c2.906-6.058,5.401-12.354,7.442-18.777l37.99-7.598
		c11.749-2.353,20.279-12.758,20.279-24.745V185.05c0-11.987-8.53-22.391-20.285-24.743l-37.989-7.599
		c-2.491-7.843-5.649-15.469-9.434-22.769l21.492-32.238c6.647-9.973,5.323-23.364-3.154-31.839l-16.495-16.496
		c-8.477-8.476-21.867-9.801-31.84-3.154l-32.238,21.493c-7.299-3.783-14.925-6.942-22.769-9.435l-7.598-37.989
		C230.772,8.53,220.366,0,208.38,0h-23.329c-11.986,0-22.391,8.531-24.743,20.285l-7.598,37.989
		c-7.844,2.493-15.47,5.651-22.769,9.434L97.704,46.216c-9.972-6.648-23.363-5.324-31.839,3.153L49.369,65.865
		c-8.475,8.476-9.801,21.864-3.153,31.839l21.492,32.238c-3.783,7.3-6.942,14.925-9.434,22.769l-37.991,7.599
		C8.53,162.66,0,173.065,0,185.052v23.329c0,11.986,8.53,22.39,20.284,24.743l37.99,7.598c2.491,7.842,5.65,15.468,9.434,22.768
		l-21.492,32.239c-6.648,9.973-5.323,23.364,3.153,31.839l16.496,16.496c8.476,8.477,21.866,9.8,31.839,3.154l32.239-21.492
		c7.299,3.783,14.924,6.941,22.769,9.433l7.598,37.992c2.35,11.75,12.756,20.282,24.742,20.282h23.329
		c11.986,0,22.391-8.531,24.743-20.285l7.598-37.99c6.229-1.978,12.343-4.386,18.228-7.18
		C262.983,326.063,264.701,321.24,262.786,317.207"/>
	<path clip-path="url(#SVGID_2_)" d="M266.74,241.636c1.18,0.606,2.438,0.893,3.682,0.893c2.936,0,5.769-1.605,7.2-4.397
		c6.519-12.715,9.967-27.036,9.967-41.415c0-50.107-40.765-90.873-90.873-90.873c-23.838,0-46.364,9.162-63.43,25.801
		c-3.197,3.116-3.262,8.235-0.146,11.431c3.116,3.196,8.234,3.263,11.431,0.146c14.029-13.676,32.547-21.209,52.143-21.209
		c41.192,0,74.705,33.512,74.705,74.705c0,11.994-2.754,23.446-8.186,34.038C261.197,234.726,262.765,239.598,266.74,241.636"/>
	<path clip-path="url(#SVGID_2_)" d="M121.043,162.125c-4.223-1.453-8.821,0.792-10.274,5.014
		c-3.267,9.498-4.924,19.45-4.924,29.577c0,50.108,40.766,90.873,90.873,90.873c19.271,0,37.683-5.956,53.247-17.227
		c3.616-2.619,4.425-7.675,1.807-11.29c-2.618-3.616-7.674-4.425-11.29-1.808c-12.788,9.259-27.921,14.154-43.765,14.154
		c-41.193,0-74.705-33.513-74.705-74.705c0-8.334,1.36-16.517,4.044-24.318C127.508,168.175,125.264,163.576,121.043,162.125"/>
	<path clip-path="url(#SVGID_2_)" d="M496.443,353.315l-23.378-4.675c-1.425-4.236-3.14-8.374-5.128-12.373l13.228-19.838
		c5.098-7.649,4.083-17.92-2.418-24.42l-10.84-10.84c-6.501-6.5-16.772-7.518-24.42-2.417l-19.839,13.225
		c-3.998-1.987-8.137-3.703-12.373-5.126l-4.676-23.377c-1.803-9.015-9.783-15.558-18.976-15.558h-15.331
		c-9.193,0-17.174,6.543-18.978,15.558l-4.676,23.377c-4.235,1.424-8.374,3.14-12.373,5.126l-19.838-13.225
		c-7.648-5.1-17.92-4.083-24.42,2.417l-10.839,10.84c-6.501,6.501-7.517,16.771-2.418,24.42l13.225,19.838
		c-2.732,5.498-4.947,11.256-6.604,17.177c-1.203,4.302,1.307,8.762,5.605,9.965c4.302,1.202,8.762-1.308,9.966-5.607
		c1.76-6.292,4.274-12.362,7.476-18.043c1.494-2.653,1.371-5.92-0.318-8.452l-15.896-23.845c-0.839-1.258-0.672-2.949,0.397-4.02
		l10.841-10.84c1.068-1.068,2.76-1.233,4.019-0.396l23.844,15.896c2.532,1.69,5.8,1.813,8.452,0.318
		c5.683-3.201,11.751-5.717,18.043-7.478c2.933-0.818,5.153-3.215,5.748-6.199l5.62-28.098c0.295-1.481,1.61-2.559,3.123-2.559
		h15.331c1.511,0,2.826,1.077,3.123,2.559l5.619,28.101c0.597,2.983,2.817,5.38,5.748,6.198c6.292,1.762,12.36,4.276,18.043,7.477
		c2.65,1.495,5.92,1.372,8.452-0.317l23.845-15.896c1.259-0.839,2.949-0.674,4.018,0.396l10.84,10.84
		c1.069,1.07,1.236,2.762,0.399,4.02l-15.898,23.845c-1.688,2.533-1.811,5.799-0.315,8.452c3.2,5.682,5.716,11.751,7.475,18.043
		c0.821,2.931,3.215,5.153,6.2,5.748l28.097,5.619c1.484,0.296,2.562,1.61,2.562,3.124v15.331c0,1.511-1.077,2.825-2.562,3.123
		l-28.098,5.618c-2.986,0.597-5.38,2.818-6.201,5.748c-1.759,6.292-4.274,12.361-7.475,18.043c-1.494,2.652-1.371,5.92,0.315,8.451
		l15.898,23.846c0.838,1.259,0.672,2.948-0.399,4.019l-10.84,10.84c-1.067,1.07-2.758,1.236-4.018,0.398l-23.847-15.897
		c-2.53-1.687-5.8-1.811-8.45-0.315c-5.684,3.199-11.751,5.715-18.043,7.475c-2.933,0.821-5.152,3.215-5.748,6.2l-5.619,28.097
		c-0.296,1.483-1.611,2.562-3.123,2.562h-15.331c-1.512,0-2.827-1.078-3.123-2.562l-5.62-28.099c-0.596-2.985-2.819-5.379-5.748-6.2
		c-6.292-1.76-12.361-4.276-18.043-7.476c-2.653-1.493-5.92-1.37-8.452,0.316l-23.844,15.898c-1.259,0.838-2.95,0.672-4.02-0.399
		l-10.841-10.84c-1.067-1.07-1.234-2.76-0.396-4.019l15.896-23.846c1.69-2.532,1.813-5.799,0.318-8.451
		c-3.201-5.683-5.716-11.751-7.477-18.043c-0.819-2.932-3.216-5.151-6.199-5.748l-28.099-5.619c-1.481-0.296-2.559-1.61-2.559-3.122
		v-15.331c0-1.513,1.077-2.827,2.559-3.123l1.722-0.345c4.378-0.876,7.218-5.136,6.341-9.514c-0.876-4.378-5.13-7.213-9.515-6.341
		l-1.721,0.344c-9.012,1.805-15.555,9.785-15.555,18.979v15.331c0,9.19,6.543,17.173,15.557,18.976l23.377,4.675
		c1.426,4.237,3.141,8.374,5.126,12.373l-13.225,19.838c-5.101,7.65-4.083,17.921,2.418,24.421l10.839,10.841
		c6.501,6.501,16.772,7.516,24.42,2.418l19.838-13.228c3.999,1.988,8.138,3.703,12.373,5.126l4.676,23.377
		c1.806,9.017,9.785,15.56,18.979,15.56h15.331c9.191,0,17.173-6.543,18.976-15.56l4.677-23.377
		c4.235-1.424,8.373-3.139,12.373-5.127l19.838,13.228c7.648,5.098,17.92,4.083,24.42-2.419l10.84-10.84
		c6.501-6.501,7.516-16.771,2.418-24.421l-13.227-19.838c1.987-3.999,3.702-8.136,5.126-12.373l23.378-4.675
		c9.014-1.803,15.557-9.784,15.557-18.976v-15.331C512,363.1,505.458,355.119,496.443,353.315"/>
	<path clip-path="url(#SVGID_2_)" d="M379.958,350.854c16.048,0,29.103,13.056,29.103,29.104c0,4.464,3.62,8.084,8.084,8.084
		s8.084-3.621,8.084-8.084c0-24.963-20.309-45.273-45.272-45.273c-24.963,0-45.271,20.311-45.271,45.273
		c0,24.962,20.309,45.271,45.271,45.271c10.111,0,19.676-3.261,27.659-9.429c3.533-2.729,4.185-7.807,1.455-11.341
		c-2.729-3.533-7.808-4.185-11.341-1.455c-5.128,3.961-11.274,6.056-17.773,6.056c-16.048,0-29.103-13.055-29.103-29.102
		C350.855,363.909,363.91,350.854,379.958,350.854"/>
	<path clip-path="url(#SVGID_2_)" d="M245.969,196.716c0-27.158-22.096-49.253-49.253-49.253c-27.158,0-49.253,22.096-49.253,49.253
		c0,27.158,22.095,49.253,49.253,49.253C223.874,245.969,245.969,223.873,245.969,196.716 M163.631,196.716
		c0-18.242,14.843-33.085,33.085-33.085c18.242,0,33.085,14.843,33.085,33.085c0,18.242-14.842,33.085-33.085,33.085
		C178.472,229.801,163.631,214.958,163.631,196.716"/>
</g>
</svg>
