<svg width="32" height="32" viewBox="0 0 32 32" fill="none" xmlns="http://www.w3.org/2000/svg">
<path d="M30.5872 2.80347H1.41275C0.63375 2.80347 0 3.43722 0 4.21622V27.7837C0 28.5627 0.63375 29.1965 1.41275 29.1965H30.5872C31.3662 29.1965 32 28.5627 32 27.7837V4.21622C32 3.43722 31.3662 2.80347 30.5872 2.80347ZM30.5872 27.7837L1.41281 27.7847C1.41281 27.7847 1.41275 27.7843 1.41275 27.7837V4.21622H30.5872V27.7837Z" fill="white"/>
<path d="M27.936 6.16113H4.064C3.67394 6.16113 3.35762 6.47745 3.35762 6.86751V22.48C3.35762 22.8701 3.67394 23.1863 4.064 23.1863H27.9359C28.326 23.1863 28.6423 22.87 28.6423 22.4799V6.86751C28.6423 6.47745 28.326 6.16113 27.936 6.16113ZM4.77037 7.57388H27.2295V19.5322L22.7778 15.081C22.502 14.8053 22.0548 14.8053 21.7788 15.081L19.065 17.7948L12.8425 11.5723C12.5667 11.2967 12.1194 11.2966 11.8436 11.5723L4.77044 18.6448V7.57388H4.77037ZM4.77037 21.7735V20.6426L12.343 13.0707L21.0458 21.7735H4.77037ZM27.2296 21.7736H23.0438V21.7735L20.0641 18.7937L22.2784 16.5794L27.0673 21.3676C27.1165 21.4169 27.1714 21.457 27.2296 21.4886V21.7736H27.2296Z" fill="white"/>
<path d="M19.0216 8.91431C17.5491 8.91431 16.351 10.1123 16.351 11.5849C16.351 13.0574 17.549 14.2554 19.0216 14.2554C20.4941 14.2554 21.6921 13.0574 21.6921 11.5849C21.6921 10.1123 20.4941 8.91431 19.0216 8.91431ZM19.0216 12.8427C18.3279 12.8427 17.7637 12.2785 17.7637 11.5849C17.7637 10.8913 18.328 10.3271 19.0216 10.3271C19.7151 10.3271 20.2793 10.8913 20.2793 11.5849C20.2793 12.2785 19.7151 12.8427 19.0216 12.8427Z" fill="white"/>
<path d="M10.2082 24.7786H4.064C3.67394 24.7786 3.35762 25.0949 3.35762 25.4849C3.35762 25.8751 3.67394 26.1913 4.064 26.1913H10.2082C10.5984 26.1913 10.9146 25.875 10.9146 25.4849C10.9146 25.0949 10.5984 24.7786 10.2082 24.7786Z" fill="white"/>
<path d="M15.0431 24.7786H13.4315C13.0414 24.7786 12.7251 25.0949 12.7251 25.4849C12.7251 25.875 13.0414 26.1913 13.4315 26.1913H15.0431C15.4332 26.1913 15.7494 25.875 15.7494 25.4849C15.7494 25.0949 15.4331 24.7786 15.0431 24.7786Z" fill="white"/>
</svg>
