<!DOCTYPE svg PUBLIC "-//W3C//DTD SVG 20010904//EN" "http://www.w3.org/TR/2001/REC-SVG-20010904/DTD/svg10.dtd">
<svg version="1.0" xmlns="http://www.w3.org/2000/svg" width="228px" height="512px" viewBox="0 0 2280 5120" preserveAspectRatio="xMidYMid meet">
<g id="layer101" fill="#000000" stroke="none">
 <path d="M943 5106 c-222 -42 -386 -143 -493 -302 -80 -121 -95 -183 -95 -399 1 -238 13 -299 187 -915 207 -735 240 -893 218 -1053 -25 -179 -110 -237 -347 -237 -106 0 -142 7 -296 57 -60 19 -110 33 -111 32 -2 -2 13 -71 33 -152 l36 -149 140 -54 c190 -74 424 -150 542 -176 81 -18 131 -22 288 -22 165 0 202 3 280 22 146 37 244 90 340 185 95 95 145 185 171 307 25 119 6 440 -36 600 -6 25 -74 268 -151 540 -155 552 -182 662 -205 833 -23 175 -2 287 65 354 99 99 387 101 640 4 30 -11 56 -19 58 -18 1 2 -14 70 -34 153 l-36 149 -181 69 c-239 92 -385 142 -471 161 -98 23 -444 29 -542 11z"/>
 <path d="M1518 1190 c-252 -43 -476 -248 -517 -474 -55 -300 107 -571 407 -684 55 -21 90 -26 198 -30 112 -4 141 -1 210 17 203 56 374 217 435 411 27 85 29 240 4 326 -48 170 -194 327 -367 395 -109 43 -254 58 -370 39z"/>
 </g>

</svg>