<svg width="32" height="32" viewBox="0 0 32 32" fill="none" xmlns="http://www.w3.org/2000/svg">
<path d="M19.9602 7.31956V7.4125L20.0492 7.43927C22.2339 8.09623 24.2358 9.2868 25.8948 10.9458C28.538 13.589 29.9934 17.1026 29.9933 20.8406C29.9933 25.065 28.1131 29.02 24.8343 31.6923L24.9133 31.7892L24.8343 31.6923L24.6102 31.875H7.3898L7.16566 31.6923L7.08668 31.7892L7.16566 31.6923C3.88693 29.02 2.00668 25.0649 2.00668 20.8406C2.00668 17.1027 3.46208 13.589 6.10526 10.9458C7.76435 9.2868 9.76625 8.09616 11.9508 7.43927L12.0398 7.4125V7.31956V0.125H19.9602V7.31956ZM27.5397 16.875H27.7169L27.6575 16.7081C26.0543 12.1989 21.9053 8.88546 16.947 8.50824L16.8126 8.498V8.63288V16.75V16.875H16.9376H27.5397ZM13.7898 1.75H13.6648V1.875V6.89419V7.04024L13.8091 7.01769C14.5274 6.90542 15.2592 6.84731 16.0001 6.84731C16.7409 6.84731 17.4727 6.90542 18.191 7.01769L18.3353 7.04024V6.89419V1.875V1.75H18.2103H13.7898ZM15.1876 8.63288V8.498L15.0531 8.50824C10.0949 8.88546 5.94583 12.1989 4.34259 16.7081L4.28326 16.875H4.46037H15.0626H15.1876V16.75V8.63288ZM23.9806 30.25H24.027L24.0621 30.2198C26.8031 27.8632 28.3684 24.4637 28.3684 20.8406C28.3684 20.0766 28.2982 19.3286 28.1649 18.6024L28.1461 18.5H28.042H16.9376H16.8126V18.625V22.5625H15.1876V18.625V18.5H15.0626H3.95812H3.85398L3.83517 18.6024C3.70189 19.3286 3.63175 20.0766 3.63175 20.8406C3.63175 24.4637 5.19693 27.8632 7.93801 30.2198L7.97315 30.25H8.0195H23.9806Z" fill="white" stroke="#FEC400" stroke-width="0.25"/>
<path d="M16.9376 2.85425H15.0626V4.65112H16.9376V2.85425Z" fill="white"/>
</svg>
