<!DOCTYPE svg PUBLIC "-//W3C//DTD SVG 20010904//EN" "http://www.w3.org/TR/2001/REC-SVG-20010904/DTD/svg10.dtd">
<svg version="1.0" xmlns="http://www.w3.org/2000/svg" width="286px" height="512px" viewBox="0 0 2860 5120" preserveAspectRatio="xMidYMid meet">
<g id="layer101" fill="#000000" stroke="none">
 <path d="M524 5106 c-18 -14 -19 -35 -22 -730 l-2 -715 -33 19 c-61 38 -117 15 -117 -47 0 -29 8 -43 49 -82 78 -73 82 -160 11 -231 -66 -66 -156 -67 -221 -1 -63 63 -65 148 -4 221 49 58 47 103 -3 129 -34 18 -64 7 -105 -38 -131 -145 -85 -381 91 -468 47 -23 70 -28 133 -28 66 0 84 4 137 32 l62 32 0 -60 0 -59 -164 0 c-159 0 -212 -8 -228 -33 -4 -7 -8 -339 -8 -738 0 -691 1 -727 18 -742 17 -15 64 -17 475 -17 l457 0 0 -75 0 -75 -88 0 c-75 0 -96 -4 -140 -26 -29 -14 -65 -42 -82 -62 -57 -70 -60 -92 -60 -471 0 -222 4 -360 11 -386 18 -63 62 -118 120 -149 44 -24 67 -30 146 -34 l93 -5 0 -117 c0 -101 3 -119 18 -133 17 -15 57 -17 365 -17 l346 0 15 22 c12 17 16 49 16 134 l0 112 88 4 c135 7 210 50 256 148 20 42 21 64 24 382 2 203 -1 359 -7 393 -13 71 -58 137 -119 172 -40 24 -60 28 -144 31 l-98 4 0 74 0 74 458 0 c432 0 460 1 475 18 16 17 17 83 17 743 0 398 -4 729 -8 736 -16 25 -69 33 -228 33 l-164 0 0 59 0 60 62 -32 c53 -28 71 -32 137 -32 63 0 86 5 133 28 148 73 210 256 135 403 -27 53 -87 114 -113 114 -19 0 -56 -19 -66 -34 -17 -25 -7 -66 27 -106 61 -73 59 -158 -4 -221 -64 -65 -153 -65 -220 -1 -72 69 -69 158 10 235 40 39 49 55 49 82 0 60 -57 82 -117 45 l-33 -20 0 694 c0 688 -2 738 -33 758 -7 4 -202 8 -433 8 -380 0 -423 -2 -435 -17 -10 -11 -15 -52 -17 -125 -2 -59 -8 -108 -13 -108 -5 0 -9 43 -9 96 0 90 -9 130 -34 146 -6 4 -198 8 -427 8 -343 0 -419 -2 -435 -14z m756 -176 l0 -60 -320 0 -320 0 0 60 0 60 320 0 320 0 0 -60z m940 0 l0 -60 -320 0 -320 0 0 60 0 60 320 0 320 0 0 -60z m-780 -865 c0 -437 -3 -665 -10 -665 -7 0 -10 228 -10 665 0 437 3 665 10 665 7 0 10 -228 10 -665z m631 -1264 l24 -19 0 -467 c0 -450 -1 -467 -19 -481 -26 -19 -55 -18 -78 3 -17 15 -18 43 -18 477 0 254 4 466 8 472 7 11 42 33 53 34 4 0 17 -9 30 -19z m-401 -1326 l0 -75 -240 0 -240 0 0 75 0 75 240 0 240 0 0 -75z m309 -230 c60 -30 62 -50 59 -423 -3 -357 -4 -362 -52 -392 -32 -20 -1057 -22 -1103 -2 -60 26 -63 43 -63 412 0 361 2 374 58 404 40 22 1059 23 1101 1z m-309 -1045 l0 -70 -240 0 -240 0 0 70 0 70 240 0 240 0 0 -70z"/>
 <path d="M1820 958 c-13 -5 -28 -14 -32 -21 -4 -7 -8 -91 -8 -188 0 -196 4 -209 68 -209 58 0 62 12 62 208 0 97 -4 182 -8 189 -13 20 -55 31 -82 21z"/>
 </g>

</svg>