<!DOCTYPE svg PUBLIC "-//W3C//DTD SVG 20010904//EN" "http://www.w3.org/TR/2001/REC-SVG-20010904/DTD/svg10.dtd">
<svg version="1.0" xmlns="http://www.w3.org/2000/svg" width="440px" height="512px" viewBox="0 0 4400 5120" preserveAspectRatio="xMidYMid meet">
<g id="layer101" fill="#000000" stroke="none">
 <path d="M7 5113 c-4 -3 -7 -34 -7 -67 1 -102 275 -3660 284 -3674 5 -9 95 -12 381 -12 l373 0 4 -197 c4 -171 8 -211 30 -294 55 -204 156 -378 307 -530 151 -151 324 -251 530 -307 88 -24 112 -26 291 -26 179 0 203 2 291 26 344 93 630 336 773 657 70 156 88 249 94 474 l4 197 374 0 374 0 9 23 c10 29 284 3640 279 3692 l-3 40 -2191 3 c-1205 1 -2194 -1 -2197 -5z m1359 -2678 c76 -37 152 -114 190 -190 27 -55 29 -69 29 -170 0 -101 -2 -115 -29 -169 -34 -69 -96 -135 -155 -166 l-41 -20 0 207 c0 190 -2 211 -20 241 -30 48 -75 72 -140 72 -65 0 -110 -24 -140 -72 -18 -30 -20 -51 -20 -241 l0 -207 -41 20 c-59 31 -127 102 -157 168 -24 51 -27 69 -27 167 0 99 3 115 27 165 36 73 86 130 148 170 75 48 122 60 226 57 76 -2 100 -7 150 -32z m2000 0 c76 -37 152 -114 190 -190 27 -55 29 -69 29 -170 0 -101 -2 -115 -29 -169 -34 -69 -96 -135 -155 -166 l-41 -20 0 207 c0 190 -2 211 -20 241 -30 48 -75 72 -140 72 -65 0 -110 -24 -140 -72 -18 -30 -20 -51 -20 -241 l0 -207 -41 20 c-59 31 -127 102 -157 168 -24 51 -27 69 -27 167 0 99 3 115 27 165 36 73 86 130 148 170 75 48 122 60 226 57 76 -2 100 -7 150 -32z m-326 -1152 c0 -125 -19 -286 -41 -360 -84 -271 -292 -478 -569 -565 -65 -20 -95 -23 -230 -23 -135 0 -165 3 -230 23 -277 87 -485 294 -569 565 -22 74 -41 235 -41 360 l0 77 840 0 840 0 0 -77z"/>
 </g>

</svg>