<svg width="32" height="32" viewBox="0 0 32 32" fill="none" xmlns="http://www.w3.org/2000/svg">
<g clip-path="url(#clip0)">
<path d="M20.5635 3.95418C20.2419 1.70005 18.2798 0 15.9998 0C14.5334 0 13.1409 0.707573 12.275 1.89343C12.0982 2.13527 12.1511 2.47452 12.3929 2.65137C12.634 2.82759 12.974 2.77531 13.1506 2.53315C13.8133 1.62632 14.8782 1.0848 15.9996 1.0848C17.7433 1.0848 19.2435 2.38426 19.4895 4.1072C19.5282 4.3778 19.7604 4.57309 20.0259 4.57309C20.0512 4.57309 20.0772 4.57118 20.1031 4.56768C20.3996 4.52526 20.6057 4.25052 20.5635 3.95418Z" fill="white"/>
<path d="M28.397 10.0257L26.7699 7.31383C26.672 7.15032 26.4954 7.05054 26.3048 7.05054H24.7455C24.4461 7.05054 24.2032 7.29349 24.2032 7.59286C24.2032 7.89222 24.4461 8.13518 24.7455 8.13518H25.9978L26.9741 9.76229H5.0253L6.00157 8.13518H6.57599C6.87535 8.13518 7.11831 7.89222 7.11831 7.59286C7.11831 7.29349 6.87535 7.05054 6.57599 7.05054H5.69458C5.50391 7.05054 5.32737 7.15032 5.22949 7.31383L3.60237 10.0257C3.50179 10.1935 3.49941 10.4022 3.59554 10.5722C3.69167 10.7422 3.87186 10.8474 4.06747 10.8474H27.9319C28.1275 10.8474 28.3075 10.7422 28.4038 10.5722C28.5001 10.4022 28.4976 10.1932 28.397 10.0257Z" fill="white"/>
<path d="M25.6935 5.02481C25.6176 4.90229 25.4964 4.81538 25.3562 4.78264L17.9625 3.05336C17.8225 3.02047 17.6751 3.04494 17.5527 3.12057C17.4307 3.19652 17.3436 3.31776 17.3109 3.45791L16.7533 5.84138C16.685 6.13296 16.8661 6.4247 17.1579 6.49271C17.4494 6.56103 17.7415 6.37989 17.8095 6.08815L18.2436 4.23302L24.5809 5.71538L23.5851 9.97305C23.5168 10.2646 23.6979 10.5564 23.9897 10.6244C24.0315 10.6341 24.0729 10.6387 24.1139 10.6387C24.3602 10.6387 24.5832 10.4699 24.6412 10.22L25.7606 5.43429C25.7937 5.2943 25.7695 5.14684 25.6935 5.02481Z" fill="white"/>
<path d="M16.2866 6.30708L15.7924 2.12727C15.7756 1.98442 15.7026 1.85397 15.5895 1.76498C15.4764 1.676 15.3335 1.63532 15.19 1.65217L6.11853 2.72441C5.82124 2.75969 5.60863 3.02918 5.64375 3.32679L6.46763 10.2981C6.50037 10.5741 6.73442 10.777 7.00566 10.777C7.0268 10.777 7.04856 10.7756 7.07017 10.7732C7.36731 10.738 7.57992 10.4685 7.54496 10.1708L6.78463 3.7377L14.7789 2.7929L15.2092 6.43404C15.2445 6.7315 15.5127 6.94284 15.8116 6.90915C16.1089 6.87419 16.3215 6.60454 16.2866 6.30708Z" fill="white"/>
<path d="M20.576 10.099L19.4995 5.62216C19.4658 5.48249 19.3779 5.36157 19.2554 5.28641C19.1329 5.21189 18.9859 5.18853 18.8453 5.2219L10.108 7.32316C9.8167 7.39308 9.63746 7.68609 9.70738 7.97735L10.2454 10.2149C10.3153 10.5065 10.6083 10.6859 10.8994 10.6155C11.1907 10.5456 11.3699 10.2526 11.3 9.96135L10.8886 8.25097L18.5713 6.40362L19.5211 10.3529C19.5807 10.6015 19.8031 10.7684 20.048 10.7684C20.0901 10.7684 20.1327 10.7635 20.1754 10.7531C20.4667 10.6831 20.6459 10.3902 20.576 10.099Z" fill="white"/>
<path d="M28.474 10.2775C28.4591 9.98921 28.2211 9.76294 27.9322 9.76294H4.06778C3.77891 9.76294 3.54088 9.98905 3.52594 10.2775L2.44114 31.43C2.43352 31.5784 2.48722 31.7236 2.58956 31.8313C2.69204 31.9389 2.8341 32.0001 2.98283 32.0001H29.0167C29.1653 32.0001 29.3075 31.9391 29.4104 31.8313C29.5126 31.7236 29.5663 31.5785 29.5588 31.43L28.474 10.2775ZM3.55359 30.9153L4.58277 10.8476H27.4166L28.4458 30.9153H3.55359Z" fill="white"/>
<path d="M20.0675 11.9321C19.1702 11.9321 18.4404 12.6619 18.4404 13.5592C18.4404 14.4565 19.1702 15.1864 20.0675 15.1864C20.9648 15.1864 21.6947 14.4565 21.6947 13.5592C21.6947 12.6619 20.9648 11.9321 20.0675 11.9321ZM20.0675 14.1017C19.7683 14.1017 19.5252 13.8584 19.5252 13.5594C19.5252 13.2604 19.7685 13.0171 20.0675 13.0171C20.3666 13.0171 20.6099 13.2604 20.6099 13.5594C20.6099 13.8584 20.3666 14.1017 20.0675 14.1017Z" fill="white"/>
<path d="M11.932 11.9321C11.0347 11.9321 10.3049 12.6619 10.3049 13.5592C10.3049 14.4565 11.0347 15.1864 11.932 15.1864C12.8293 15.1864 13.5591 14.4565 13.5591 13.5592C13.5591 12.6619 12.8293 11.9321 11.932 11.9321ZM11.932 14.1017C11.6329 14.1017 11.3897 13.8584 11.3897 13.5594C11.3897 13.2604 11.6329 13.0171 11.932 13.0171C12.231 13.0171 12.4743 13.2604 12.4743 13.5594C12.4743 13.8584 12.231 14.1017 11.932 14.1017Z" fill="white"/>
<path d="M20.0675 13.5593H20.0258C19.7264 13.5593 19.4834 13.8023 19.4834 14.1016C19.4834 14.1757 19.4981 14.2464 19.5252 14.3108V17.0846C19.5252 19.0284 17.9437 20.6101 15.9998 20.6101C14.0558 20.6101 12.4743 19.0286 12.4743 17.0846V14.1018C12.4743 13.8024 12.2313 13.5595 11.932 13.5595C11.6326 13.5595 11.3896 13.8024 11.3896 14.1018V17.0848C11.3896 19.6268 13.4577 21.6949 15.9998 21.6949C18.5418 21.6949 20.6099 19.6268 20.6099 17.0848V14.1018C20.6099 13.8024 20.3669 13.5593 20.0675 13.5593Z" fill="white"/>
</g>
<defs>
<clipPath id="clip0">
<rect width="32" height="32" fill="white"/>
</clipPath>
</defs>
</svg>
