<!DOCTYPE svg PUBLIC "-//W3C//DTD SVG 20010904//EN" "http://www.w3.org/TR/2001/REC-SVG-20010904/DTD/svg10.dtd">
<svg version="1.0" xmlns="http://www.w3.org/2000/svg" width="512px" height="502px" viewBox="0 0 5120 5020" preserveAspectRatio="xMidYMid meet">
<g id="layer101" fill="#000000" stroke="none">
 <path d="M2255 5009 c-29 -8 -295 -264 -295 -284 0 -5 590 -600 1311 -1320 720 -721 1322 -1329 1336 -1353 14 -23 31 -63 39 -89 9 -29 34 -312 64 -718 28 -368 52 -689 55 -712 l6 -42 62 -6 c34 -4 94 -7 132 -8 115 -3 155 39 155 160 -1 37 -29 442 -64 898 -49 648 -66 837 -79 860 -23 44 -2587 2602 -2620 2615 -33 12 -60 12 -102 -1z"/>
 <path d="M1676 4535 c-32 -11 -209 -182 -844 -817 -442 -442 -810 -815 -818 -830 -18 -35 -18 -101 0 -136 22 -41 2587 -2600 2618 -2611 15 -6 425 -40 912 -77 880 -66 884 -66 923 -48 23 12 46 33 58 56 l19 36 -67 892 c-48 642 -71 899 -81 918 -8 15 -599 611 -1313 1325 -922 921 -1304 1297 -1320 1297 -12 0 -27 2 -35 5 -7 2 -31 -2 -52 -10z m1895 -3159 c160 -37 270 -174 270 -334 0 -137 -67 -242 -201 -313 -38 -20 -59 -24 -140 -24 -113 0 -166 21 -243 98 -165 162 -118 442 91 547 77 38 141 46 223 26z"/>
 </g>

</svg>