<svg width="24" height="24" viewBox="0 0 24 24" fill="none" xmlns="http://www.w3.org/2000/svg">
<path d="M22.586 11.4604L12.5395 1.41393C12.4093 1.2837 12.2046 1.19067 12 1.19067C11.7953 1.19067 11.5907 1.2837 11.4604 1.41393L1.41393 11.4604C1.11626 11.7581 1.11626 12.2418 1.41393 12.5395C1.56277 12.6883 1.74881 12.7628 1.95346 12.7628C2.15812 12.7628 2.34416 12.6883 2.493 12.5395L11.2372 3.79533V22.0465C11.2372 22.4744 11.5721 22.8093 12 22.8093C12.4279 22.8093 12.7628 22.4744 12.7628 22.0465V3.79533L21.507 12.5395C21.8046 12.8372 22.2883 12.8372 22.586 12.5395C22.8837 12.2418 22.8651 11.7581 22.586 11.4604Z" fill="black"/>
</svg>
