<!DOCTYPE svg PUBLIC "-//W3C//DTD SVG 20010904//EN" "http://www.w3.org/TR/2001/REC-SVG-20010904/DTD/svg10.dtd">
<svg version="1.0" xmlns="http://www.w3.org/2000/svg" width="80px" height="81px" viewBox="0 0 800 810" preserveAspectRatio="xMidYMid meet">
<g id="layer101" fill="#c7c7c7" stroke="none">
 <path d="M289 797 c-105 -30 -198 -108 -252 -212 -31 -57 -32 -65 -32 -175 0 -110 2 -119 32 -181 58 -117 166 -196 303 -221 165 -31 353 70 428 230 24 51 27 68 27 172 0 110 -1 118 -32 176 -42 80 -108 146 -188 185 -54 26 -78 32 -152 35 -53 2 -106 -1 -134 -9z m224 -118 l28 -15 -23 -34 c-61 -91 -182 -89 -238 3 -11 17 -18 33 -15 35 32 32 194 39 248 11z m-295 -151 c13 -14 37 -32 52 -38 l28 -12 -24 -35 c-31 -46 -33 -123 -4 -171 22 -35 88 -72 130 -72 42 0 108 37 130 72 29 48 27 125 -4 171 l-24 35 29 12 c31 13 89 73 89 92 0 22 28 -13 50 -63 60 -141 -2 -302 -145 -377 -71 -37 -179 -37 -250 0 -163 85 -216 277 -118 427 15 23 16 23 26 5 5 -10 21 -31 35 -46z m210 -140 c34 -34 -6 -90 -48 -68 -35 19 -20 80 20 80 9 0 21 -5 28 -12z"/>
 </g>

</svg>