<?xml version="1.0" encoding="utf-8"?>
<!-- Generator: Adobe Illustrator 14.0.0, SVG Export Plug-In . SVG Version: 6.00 Build 43363)  -->
<!DOCTYPE svg PUBLIC "-//W3C//DTD SVG 1.1//EN" "http://www.w3.org/Graphics/SVG/1.1/DTD/svg11.dtd">
<svg version="1.1" id="Layer_1" xmlns="http://www.w3.org/2000/svg" xmlns:xlink="http://www.w3.org/1999/xlink" x="0px" y="0px"
	 width="20px" height="11.434px" viewBox="0 0 20 11.434" enable-background="new 0 0 20 11.434" xml:space="preserve">
<g>
	<defs>
		<rect id="SVGID_1_" y="0" width="20" height="11.434"/>
	</defs>
	<clipPath id="SVGID_2_">
		<use xlink:href="#SVGID_1_"  overflow="visible"/>
	</clipPath>
	<path clip-path="url(#SVGID_2_)" d="M17.802,8.015c0,0,1.617,1.597,2.018,2.336c0.011,0.017,0.016,0.028,0.018,0.035
		c0.163,0.273,0.203,0.486,0.123,0.646c-0.135,0.26-0.592,0.392-0.747,0.402h-2.857c-0.199,0-0.613-0.052-1.116-0.399
		c-0.387-0.27-0.77-0.712-1.141-1.146c-0.554-0.644-1.032-1.201-1.518-1.201c-0.063,0-0.122,0.011-0.18,0.03
		c-0.367,0.115-0.833,0.639-0.833,2.031c0,0.437-0.345,0.685-0.586,0.685H9.674c-0.446,0-2.768-0.156-4.827-2.327
		C2.324,6.449,0.058,1.117,0.036,1.07c-0.141-0.345,0.155-0.533,0.475-0.533h2.886c0.387,0,0.513,0.234,0.601,0.444
		c0.102,0.241,0.48,1.205,1.1,2.288c1.004,1.762,1.621,2.479,2.114,2.479c0.093,0,0.181-0.023,0.264-0.07
		C8.12,5.324,8,3.024,7.97,2.55c0-0.092-0.001-1.027-0.331-1.479c-0.236-0.324-0.638-0.45-0.881-0.496
		c0.065-0.094,0.203-0.238,0.38-0.323C7.579,0.032,8.376,0,9.167,0h0.439c0.858,0.012,1.08,0.067,1.392,0.146
		c0.628,0.15,0.64,0.557,0.585,1.943c-0.016,0.396-0.033,0.842-0.033,1.367c0,0.112-0.005,0.237-0.005,0.364
		c-0.019,0.711-0.044,1.512,0.458,1.841c0.064,0.04,0.139,0.062,0.217,0.062c0.174,0,0.695,0,2.108-2.425
		c0.62-1.071,1.1-2.334,1.133-2.429c0.028-0.053,0.112-0.202,0.214-0.262c0.078-0.048,0.183-0.056,0.236-0.056h3.395
		c0.37,0,0.621,0.056,0.67,0.196c0.082,0.227-0.016,0.92-1.565,3.016c-0.261,0.349-0.49,0.651-0.691,0.915
		C16.314,6.521,16.314,6.615,17.802,8.015"/>
</g>
</svg>
